<?xml version="1.0" encoding="UTF-8" standalone="no"?>
<!-- Creator: CorelDRAW -->

<svg
   xml:space="preserve"
   width="210mm"
   height="297mm"
   version="1.1"
   style="shape-rendering:geometricPrecision; text-rendering:geometricPrecision; image-rendering:optimizeQuality; fill-rule:evenodd; clip-rule:evenodd"
   viewBox="0 0 21000 29700"
   id="svg1"
   sodipodi:docname="белый.svg"
   inkscape:version="1.3.2 (091e20e, 2023-11-25, custom)"
   xmlns:inkscape="http://www.inkscape.org/namespaces/inkscape"
   xmlns:sodipodi="http://sodipodi.sourceforge.net/DTD/sodipodi-0.dtd"
   xmlns="http://www.w3.org/2000/svg"
   xmlns:svg="http://www.w3.org/2000/svg"><sodipodi:namedview
   id="namedview1"
   pagecolor="#ffffff"
   bordercolor="#000000"
   borderopacity="0.25"
   inkscape:showpageshadow="2"
   inkscape:pageopacity="0.0"
   inkscape:pagecheckerboard="0"
   inkscape:deskcolor="#d1d1d1"
   inkscape:document-units="mm"
   inkscape:zoom="0.84100811"
   inkscape:cx="385.25193"
   inkscape:cy="261.59082"
   inkscape:window-width="1440"
   inkscape:window-height="830"
   inkscape:window-x="-6"
   inkscape:window-y="-6"
   inkscape:window-maximized="1"
   inkscape:current-layer="Слой_x0020_1" />
 <defs
   id="defs1">
  <style
   type="text/css"
   id="style1">
   <![CDATA[
    .str0 {stroke:#2B2A29;stroke-width:20;stroke-miterlimit:22.9256}
    .fil0 {fill:#FEFEFE}
   ]]>
  </style>
 </defs>
 <g
   id="Слой_x0020_1"
   inkscape:label="Слой 1">
  <metadata
   id="CorelCorpID_0Corel-Layer" />
  <path
   class="fil0 str0"
   d="m 394.39516,2938.5481 c -25.4916,145.7172 -20.8951,331.556 -21.1385,536.1017 -0.2432,204.5456 -5.3517,427.7846 -9.2311,579.2589 -3.8923,151.4606 -6.5682,231.1429 -8.2326,377.9677 -1.6645,146.825 -2.3046,360.7925 -5.5055,562.904 -3.2008,202.098 -8.9368,392.3535 -10.294,552.2242 -1.3698,159.8568 1.6645,289.3285 5.8769,397.1669 4.2122,107.8384 9.6153,194.0162 18.8337,285.363 9.2184,91.3467 22.2395,187.8352 72.5824,259.135 50.3301,71.286 137.982,117.3559 242.6752,138.6064 104.69325,21.2505 226.42785,17.6676 330.48084,-0.5196 104.0403,-18.2011 190.3734,-51.0202 247.9375,-113.4041 57.5511,-62.3975 86.3076,-154.3733 104.7572,-239.9766 18.4369,-85.6035 26.5414,-164.8346 31.9316,-240.4281 5.3902,-75.6073 8.0405,-147.5634 7.7717,-207.7728 -0.2817,-60.2096 -3.4953,-108.6726 -11.3567,-159.3509 -7.874,-50.6921 -20.3829,-103.5993 -38.9478,-154.852 -18.5777,-51.2527 -43.1986,-100.8507 -79.9827,-138.5381 -36.7841,-37.701 -85.7443,-63.5052 -132.6942,-92.8236 -46.9628,-29.3185 -91.9155,-62.1651 -125.8444,-105.1719 -33.94179,-43.0067 -56.85989,-96.1739 -76.88429,-181.3944 -20.0245,-85.2206 -37.1683,-202.4671 -35.6702,-381.0309 1.4979,-178.5775 21.6505,-418.4586 69.5096,-552.5796 47.85889,-134.1212 123.43729,-162.4824 239.87129,-170.1129 116.4339,-7.6442 273.7105,5.4562 360.5303,94.9021 86.8069,89.4461 103.1568,255.2514 109.1871,472.5008 6.0177,217.2358 1.7285,485.9156 7.7078,753.4058 5.9663,267.4766 22.2138,533.7633 21.7913,737.4065 -0.4226,203.6294 -17.5151,344.6289 13.021,468.2479 30.536,123.6053 108.7006,229.8438 246.3626,265.8903 137.662,36.0463 334.8211,1.887 427.3384,-83.3883 92.5172,-85.2889 80.3668,-221.7073 74.1572,-419.9489 -6.2225,-198.2553 -6.5042,-458.3475 -7.5412,-669.963 -1.0371,-211.6155 -2.8168,-374.7816 -12.5858,-621.4042 -9.769,-246.6363 -27.54,-576.7291 4.4428,-767.395 31.97,-190.6659 113.6812,-241.8776 242.4704,-254.212 128.7764,-12.3346 304.618,14.2353 402.5767,245.3097 97.9458,231.0747 117.9831,666.6538 73.3249,900.7914 -44.6582,234.1241 -154.0246,266.7792 -234.8652,322.0385 -80.8533,55.2457 -133.1936,133.0818 -158.1729,261.2955 -24.9795,128.2137 -22.598,306.8185 -17.6175,438.9705 4.9806,132.1383 12.5858,217.8511 26.8487,320.6982 14.263,102.8473 35.2093,222.8287 202.6007,279.018 167.3914,56.1892 481.2277,48.5587 631.7571,-59.5258 150.5166,-108.0846 137.7131,-316.6233 131.8876,-496.6093 -5.8383,-179.9859 -4.6988,-331.3919 -3.3673,-466.5113 1.3187,-135.1193 2.8296,-253.9521 -7.618,-669.0877 -10.4604,-415.1493 -32.8919,-1126.6284 -65.5917,-1545.2101 -32.7127,-418.5815 -75.6936,-544.2654 -112.6825,-635.1608 -36.989,-90.8956 -67.9732,-147.0027 -107.4716,-188.2181 -39.5113,-41.2156 -87.5239,-67.5666 -159.7605,-94.8476 -72.2368,-27.281 -168.6846,-55.4918 -275.708,-66.9511 -107.0363,-11.4731 -224.6609,-6.181 -364.5891,25.134 -139.9281,31.3013 -302.1853,88.6392 -405.0092,288.4534 -102.8368,199.8006 -146.2402,542.1048 -203.497,505.7029 -57.2566,-36.4156 -128.3666,-451.5376 -346.7026,-649.9569 -218.3489,-198.4194 -583.9237,-180.1638 -803.96259,-143.8985 -220.03885,36.2651 -294.54175,90.5398 -359.58285,170.482 -65.0412,79.9285 -120.6335,185.5379 -146.125,331.2688 z M 4085.4813,4404.1032 c -44.4405,29.469 -46.4763,75.279 -49.5364,128.747 -3.0728,53.4543 -7.1571,114.539 -7.1571,238.91 0,124.3712 4.0843,312.0013 8.1687,461.4654 4.0843,149.4505 8.1685,260.735 8.1685,380.7438 0,119.9951 -4.0842,248.7149 -2.0358,356.7174 2.0358,108.0024 10.2172,195.2878 24.0192,274.5873 13.802,79.2994 33.2376,150.6265 62.8902,201.7833 29.6526,51.157 69.5224,82.1574 117.01,107.5924 47.475,25.4211 102.5679,45.2768 181.1423,59.2386 78.5615,13.9618 180.5916,22.0299 375.0365,23.5341 194.4321,1.5042 481.2662,-3.5554 648.8369,-32.6688 167.5578,-29.127 215.8521,-82.3078 253.1484,-128.4735 37.2834,-46.1656 63.5687,-85.2889 79.3938,-163.2071 15.8121,-77.9183 21.1639,-194.6315 26.9894,-297.6976 5.8256,-103.0796 12.1377,-192.5392 14.8392,-287.7559 2.7015,-95.2168 1.7924,-196.2179 0,-268.3517 -1.8054,-72.134 -4.5069,-115.4142 -4.2124,-218.2613 0.2945,-102.8473 3.585,-265.2613 -0.6145,-376.409 -4.1995,-111.1614 -15.889,-171.0701 141.6822,-196.2725 157.5583,-25.216 484.3781,-15.7396 762.2114,-11.4183 277.8333,4.3075 506.6681,3.446 699.0261,3.487 192.3451,0.041 348.2007,0.9572 454.4047,3.1178 106.204,2.1606 162.7691,5.5382 169.7851,38.8224 7.017,33.2705 -35.516,96.4337 -97.6381,197.1477 -62.1348,100.7139 -143.8587,238.9648 -204.598,339.6788 -60.7392,100.7139 -100.4681,163.8634 -155.6378,260.4477 -55.1826,96.5705 -125.806,226.5481 -192.6013,343.5486 -66.808,116.9868 -129.8006,220.9963 -194.0736,338.1335 -64.273,117.1235 -129.8135,247.4021 -196.8904,367.452 -67.0769,120.0499 -135.6774,229.8711 -225.4675,375.2876 -89.8029,145.4164 -200.7953,326.4279 -291.6866,467.0035 -90.8911,140.5756 -161.6682,240.7288 -183.8436,315.1054 -22.1883,74.3628 4.2251,122.9626 109.7121,146.1548 105.487,23.1786 290.0221,20.9633 548.2023,17.0523 258.1672,-3.9247 589.954,-9.5449 944.9661,-12.3482 355.0124,-2.817 733.2224,-2.817 1042.5654,0.068 309.3303,2.8853 549.7643,8.656 894.7647,12.0337 345.0006,3.3776 794.5656,4.3622 1140.5636,6.4271 345.985,2.0649 588.405,5.2238 740.201,8.533 151.81,3.2956 212.998,6.7553 242.036,-37.3319 29.051,-44.1008 25.966,-135.7347 -4.34,-177.1553 -30.307,-41.4205 -87.832,-32.614 -269.755,-29.8791 -181.923,2.7349 -488.231,-0.6017 -819.852,-2.4614 -331.62,-1.8599 -688.54,-2.2428 -977.7806,-6.81 -289.2544,-4.581 -510.8174,-13.3466 -757.0644,-20.266 -246.2603,-6.9192 -517.2053,-11.9926 -753.6703,-13.8933 -236.478,-1.9008 -438.5028,-0.6428 -624.792,2.0921 -186.2891,2.7213 -356.8686,6.9058 -463.7127,-0.547 -106.8443,-7.4526 -149.9661,-26.5288 -105.9225,-150.7221 44.0309,-124.207 175.2144,-353.5038 448.528,-831.201 273.3009,-477.7109 688.7072,-1203.8083 909.0662,-1602.4112 220.344,-398.6165 245.631,-469.7521 263.492,-521.3466 17.848,-51.6083 28.27,-83.689 -35.67,-100.0029 -63.94,-16.3275 -202.23,-16.9018 -355.126,-18.2693 -152.911,-1.3812 -320.431,-3.5555 -531.8658,-4.6494 -211.4349,-1.094 -466.7856,-1.094 -724.1847,-2.1743 -257.3992,-1.094 -516.8468,-3.2819 -739.1519,-4.7725 -222.305,-1.4904 -407.4809,-2.2836 -577.0361,-6.6459 -169.5551,-4.3758 -323.5029,-12.2935 -436.2111,-14.0712 -112.721,-1.7913 -184.2278,2.5709 -270.0233,10.215 -85.7954,7.6305 -185.905,18.5428 -237.9891,111.2708 -52.097,92.7279 -56.1813,267.285 -49.8308,409.023 6.3504,141.7379 23.1229,250.6567 69.8295,322.7494 46.7068,72.0929 123.3223,107.3461 187.7745,138.7843 64.4394,31.438 116.6899,59.0609 152.1298,100.6592 35.4269,41.5846 54.0429,97.1448 62.4291,184.0063 8.3735,86.8477 6.5298,204.9832 -4.5324,289.6568 -11.062,84.6735 -31.3426,135.8714 -54.235,175.3229 -22.8925,39.4378 -48.4097,67.1153 -99.7768,88.352 -51.3672,21.2231 -128.5842,36.0054 -220.615,34.3645 -92.0307,-1.6547 -198.8493,-19.7326 -268.2691,-48.2169 -69.42,-28.4843 -101.4156,-67.4025 -123.8855,-123.031 -22.4828,-55.6422 -35.4142,-128.0086 -39.6138,-261.8015 -4.2122,-133.8066 0.3073,-329.0262 3.9307,-471.3658 3.6105,-142.3396 6.312,-231.7993 12.2272,-375.2739 5.9024,-143.4883 15.0184,-340.9914 -22.8028,-446.3137 -37.8211,-105.3223 -122.5923,-118.4363 -208.3878,-118.4363 -85.7954,0 -172.6407,13.114 -217.0812,42.5965 z m 1922.6962,-1843.222 c 147.3796,-13.0593 441.3843,-0.6838 1236.026,1.7367 794.6292,2.4067 2089.8955,-5.1417 2793.8245,-8.328 703.917,-3.1998 816.498,-2.0649 902.818,-1.1896 86.321,0.8752 146.382,1.4631 202.409,2.8717 56.027,1.4221 108.035,3.6374 146.765,11.3225 38.756,7.6852 64.234,20.8129 -22.547,188.601 -86.768,167.7883 -285.822,490.2096 -587.073,1018.9815 -301.277,528.7721 -704.7496,1263.8948 -962.7756,1737.6264 -258.0144,473.7178 -370.5684,686.0443 -413.3454,791.558 -42.789,105.5001 -15.799,104.1874 96.756,105.7189 112.542,1.5316 310.6354,5.8938 635.854,8.2458 325.218,2.3521 777.55,2.6939 1049.801,3.3367 272.238,0.6426 364.396,1.6136 414.663,-74.6227 50.266,-76.2499 58.652,-229.6797 60.726,-445.4113 2.074,-215.7453 -2.164,-493.7786 -1.409,-679.5625 0.743,-185.7704 6.479,-279.3051 45.85,-379.7456 39.383,-100.4404 112.426,-207.7728 265.99,-263.88 153.564,-56.1072 387.673,-60.989 590.248,-62.0967 202.563,-1.1076 373.589,1.5179 516.488,29.3595 142.899,27.828 257.643,80.8584 321.865,188.054 64.247,107.1821 77.947,268.5432 83.029,453.2332 5.084,184.6764 1.537,392.6818 -4.097,594.3421 -5.62,201.6329 -13.302,396.9209 -24.082,533.353 -10.794,136.4321 -24.647,214.0359 -70.01,286.5116 -45.349,72.4758 -122.182,139.8098 -239.372,170.2907 -117.176,30.4808 -274.709,24.0811 -580.044,17.7633 -305.322,-6.3039 -758.434,-12.5396 -1213.376,-18.8026 -454.942,-6.263 -911.691,-12.5397 -1378.7836,-14.7139 -467.0924,-2.188 -944.5317,-0.2461 -1218.1647,0.8614 -273.646,1.094 -343.527,1.3812 -354.538,-38.7266 -11.01,-40.1351 36.836,-120.6379 371.579,-716.4295 334.744,-595.7915 956.3873,-1706.8446 1301.8997,-2313.0972 345.5116,-606.2528 414.8936,-707.7188 381.6046,-761.8568 -33.302,-54.138 -169.299,-60.989 -411.6666,-63.5461 -242.368,-2.5572 -591.1324,-0.8479 -1015.0787,-1.7094 -423.957,-0.8478 -923.0843,-4.2801 -1331.845,-6.8373 -408.7607,-2.5572 -727.1039,-4.2666 -981.4686,-3.4186 -254.3776,0.8614 -444.7517,4.2801 -565.5387,0.013 -120.7871,-4.2801 -171.9878,-16.2317 -192.3836,-50.8014 -20.3829,-34.5831 -9.9738,-91.7706 -4.3659,-139.6183 5.595,-47.8476 6.376,-86.3282 153.7686,-99.3875 z m 6810.2075,2328.0437 c -76.948,-14.3721 -162.129,-15.9584 -259.256,-15.1653 -97.113,0.7932 -206.198,3.9931 -284.645,29.5237 -78.433,25.5305 -126.254,73.4192 -151.656,155.604 -25.388,82.1847 -28.385,198.693 -32.124,363.8692 -3.725,165.1627 -8.22,379.0071 -4.48,532.2181 3.739,153.1973 15.683,245.7474 75.86,294.5112 60.176,48.7639 168.556,53.7278 277.974,57.5841 109.43,3.8426 219.898,6.5911 318.099,-1.4769 98.216,-8.0681 184.19,-26.9527 232.997,-92.7963 48.806,-65.8434 60.457,-178.6732 68.844,-291.3251 8.398,-112.6518 13.545,-225.1397 14.826,-337.6275 1.28,-112.4879 -1.281,-224.9893 -8.937,-329.368 -7.643,-104.3788 -20.37,-200.6621 -61.098,-262.3621 -40.727,-61.7002 -109.456,-88.8307 -186.404,-103.1891 z m 915.851,-88.4478 c -45.157,164.178 -31.893,416.927 -33.25,688.957 -1.358,272.0302 -17.323,563.3416 -13.495,764.0311 3.841,200.6757 27.501,310.7157 81.571,378.3644 54.068,67.6348 138.57,92.8782 224.98,103.4488 86.41,10.5568 174.754,6.4545 249.5,-4.1434 74.759,-10.5979 135.933,-27.7049 182.204,-66.8144 46.272,-39.1096 77.641,-100.2353 96.653,-187.3977 19.026,-87.1623 25.697,-200.3475 17.541,-302.2512 -8.144,-101.9173 -31.125,-192.553 -79.931,-256.6051 -48.794,-64.0658 -123.425,-101.5617 -197.672,-144.6779 -74.246,-43.13 -148.096,-91.8801 -188.709,-173.9145 -40.6,-82.048 -47.961,-197.3938 -46.733,-312.4661 1.229,-115.086 11.05,-229.8985 52.264,-296.33 41.227,-66.4315 113.861,-84.4822 254.058,-92.5912 140.21,-8.1228 347.97,-6.3177 458.079,38.2207 110.109,44.5384 122.54,131.7964 127.662,321.9564 5.135,190.1599 2.933,483.208 -6.952,748.1273 -9.871,264.9056 -27.425,501.6961 16.901,619.4351 44.325,117.7252 150.554,116.4123 239.166,116.0432 88.613,-0.3693 159.607,0.2051 193.345,-66.0486 33.737,-66.2538 30.203,-199.322 30.549,-359.5617 0.358,-160.2534 4.584,-347.6511 4.161,-527.9516 -0.41,-180.3005 -5.48,-353.5038 -6.223,-508.5882 -0.73,-155.0844 2.855,-292.0499 -16.26,-405.2078 -19.103,-113.1578 -60.931,-202.4807 -139.339,-267.8867 -78.409,-65.4059 -193.408,-106.8675 -332.312,-129.1983 -138.892,-22.3307 -301.686,-25.5305 -458.246,-21.0589 -156.56,4.4716 -306.884,16.601 -433.842,60.4693 -126.946,43.8684 -230.512,119.462 -275.67,283.64 z m 2439.556,846.7901 c 111.069,5.21 281.469,5.4562 419.643,4.581 138.175,-0.8751 244.123,-2.8716 333.285,-16.8062 89.163,-13.9345 161.566,-39.8206 215.417,-100.6455 53.864,-60.8249 89.201,-156.5887 108.061,-256.482 18.859,-99.9072 21.253,-203.944 8.757,-321.1769 -12.483,-117.2467 -39.844,-247.703 -130.261,-329.6143 -90.418,-81.9112 -243.88,-115.2637 -458.157,-127.4205 -214.264,-12.1567 -489.357,-3.0905 -654.073,22.8777 -164.703,25.9545 -219.04,68.8382 -261.778,119.4209 -42.737,50.5689 -73.888,108.864 -91.288,246.1304 -17.4,137.2525 -21.062,353.4901 -22.892,547.0276 -1.831,193.5377 -1.831,364.3615 -0.461,523.4115 1.382,159.0501 4.148,306.3262 19.064,409.5838 14.928,103.2574 42.033,162.5097 70.047,212.9008 28.027,50.3912 56.988,91.9348 107.113,121.0482 50.139,29.1133 121.465,45.8101 242.829,52.6201 121.363,6.8099 292.763,3.7195 460.96,3.6511 168.211,-0.068 333.208,2.8717 432.345,-25.4759 99.149,-28.3613 132.425,-88.0238 155.676,-150.941 23.264,-62.9171 36.476,-129.1025 37.667,-242.4929 1.191,-113.4039 -9.666,-274.0129 -146.086,-350.1808 -136.42,-76.1679 -398.416,-67.881 -517.013,1.6682 -118.598,69.5357 -93.797,200.334 -137.265,264.263 -43.455,63.9154 -155.165,60.948 -230.359,53.4954 -75.181,-7.4528 -113.848,-19.3771 -135.498,-71.71 -21.65,-52.333 -26.297,-145.0472 -30.178,-254.3215 -3.866,-109.2879 -6.977,-235.1358 17.336,-292.966 24.314,-57.8303 76.04,-47.6562 187.109,-42.4462 z m 118.508,-719.0413 c -23.994,76.8926 -22.623,189.6812 -0.909,264.9876 21.715,75.3065 63.761,113.1442 137.815,135.8442 74.056,22.7 180.106,30.2758 278.384,30.3988 98.279,0.1231 188.787,-7.2065 245.697,-54.0697 56.911,-46.8767 80.226,-133.2869 82.274,-220.4356 2.062,-87.1487 -17.131,-175.0357 -71.468,-227.6286 -54.324,-52.6063 -143.781,-69.9185 -241.151,-78.7113 -97.357,-8.7928 -202.639,-9.039 -279.959,11.3363 -77.32,20.3752 -126.676,61.3856 -150.683,138.2783 z"
   id="path1" />
 </g>
</svg>
