<?xml version="1.0" encoding="UTF-8" standalone="no"?>
<!-- Creator: CorelDRAW -->

<svg
   xml:space="preserve"
   width="210mm"
   height="297mm"
   version="1.1"
   style="shape-rendering:geometricPrecision; text-rendering:geometricPrecision; image-rendering:optimizeQuality; fill-rule:evenodd; clip-rule:evenodd"
   viewBox="0 0 21000 29700"
   id="svg1"
   sodipodi:docname="логотип итоговый.svg"
   inkscape:version="1.3.2 (091e20e, 2023-11-25, custom)"
   xmlns:inkscape="http://www.inkscape.org/namespaces/inkscape"
   xmlns:sodipodi="http://sodipodi.sourceforge.net/DTD/sodipodi-0.dtd"
   xmlns="http://www.w3.org/2000/svg"
   xmlns:svg="http://www.w3.org/2000/svg"><sodipodi:namedview
   id="namedview1"
   pagecolor="#ffffff"
   bordercolor="#000000"
   borderopacity="0.25"
   inkscape:showpageshadow="2"
   inkscape:pageopacity="0.0"
   inkscape:pagecheckerboard="0"
   inkscape:deskcolor="#d1d1d1"
   inkscape:document-units="mm"
   inkscape:zoom="0.52738496"
   inkscape:cx="397.24303"
   inkscape:cy="561.25984"
   inkscape:window-width="1440"
   inkscape:window-height="830"
   inkscape:window-x="-6"
   inkscape:window-y="-6"
   inkscape:window-maximized="1"
   inkscape:current-layer="Слой_x0020_1" />
 <defs
   id="defs1">
  <style
   type="text/css"
   id="style1">
   <![CDATA[
    .str0 {stroke:#2B2A29;stroke-width:20;stroke-miterlimit:22.9256}
    .fil0 {fill:#2B2A29}
   ]]>
  </style>
 </defs>
 <g
   id="Слой_x0020_1"
   inkscape:label="Слой 1">
  <metadata
   id="CorelCorpID_0Corel-Layer" />
  <path
   class="fil0 str0"
   d="m 2041.7473,3005.3516 c -7.7818,24.7488 -5.7137,36.1363 -5.829,66.82 -0.1152,30.6837 -1.4687,64.9493 -2.5324,87.946 -1.067,22.9967 -1.8046,35.0921 -2.2591,57.3849 -0.4512,22.2908 -0.6356,54.781 -1.5115,85.4666 -0.876,30.6818 -2.4601,59.5686 -2.8289,83.843 -0.3788,24.2684 0.4577,43.9283 1.6137,60.2997 1.1559,16.3715 2.6378,29.4567 5.1735,43.3256 2.5325,13.8706 6.1023,28.5174 19.9303,39.3428 13.8248,10.8236 37.8881,17.8164 66.6408,21.0443 28.7461,3.2261 62.1818,2.6817 90.7567,-0.08 28.5749,-2.7614 52.2891,-7.7434 68.0929,-17.2155 15.8008,-9.474 23.7011,-23.4361 28.766,-36.4338 5.0681,-12.9976 7.2878,-25.0289 8.7665,-36.5058 1.4786,-11.477 2.213,-22.4017 2.1373,-31.5451 -0.079,-9.1416 -0.9649,-16.5018 -3.122,-24.1947 -2.1571,-7.6946 -5.5951,-15.7278 -10.6962,-23.51 -5.1012,-7.7823 -11.8621,-15.3078 -21.9622,-21.0327 -10.1002,-5.721 -23.5496,-9.6412 -36.439,-14.0924 -12.8961,-4.4531 -42.3799,-4.8888 -61.1379,-14.9579 -18.7547,-10.069 -24.1851,-24.7273 -24.5408,-42.2209 -0.3556,-17.4935 -3.1812,-50.5146 -2.7828,-77.6222 0.3986,-27.1075 -5.3612,-41.2331 13.782,-61.0912 19.1432,-19.8562 62.2016,-14.036 94.1685,-15.195 31.9668,-1.159 75.1734,0.8342 99.0127,14.4113 23.836,13.5791 28.3279,38.7518 29.9844,71.7378 1.6531,32.9843 0.4741,73.7739 2.1174,114.3867 1.64,40.6088 6.099,81.0408 5.9837,111.9578 -0.1152,30.9171 -4.8146,52.3251 3.5765,71.0923 4.8508,10.8489 4.4918,16.6068 15.8302,25.6861 4.9267,3.9436 9.4811,6.6466 16.4099,9.2115 9.9158,3.6695 22.7065,5.2737 35.4115,5.474 23.9974,0.3812 48.7094,1.3106 77.5841,0.1789 15.5009,-0.6068 29.2368,-5.1065 39.7717,-12.8401 27.6758,-20.3074 22.0774,-33.6609 20.3683,-63.7592 -1.7027,-30.0984 -1.7916,-69.5911 -2.0748,-101.7196 -0.2832,-32.1284 -0.7706,-56.9026 -3.4545,-94.3476 -2.6839,-37.4469 -9.7939,-94.1668 -1.0176,-123.1139 8.7763,-28.9472 33.4587,-30.1217 68.8241,-31.9905 22.3377,-1.1803 93.826,-2.6426 117.8102,7.2106 13.996,5.7501 25.4134,13.7697 28.5353,27.8348 5.0353,22.6934 8.9476,49.5735 10.2582,75.5221 1.2218,24.2276 0.1878,47.6463 -4.2909,66.0869 -4.4886,18.4658 -16.5878,25.8358 -28.8054,32.5602 -11.5426,6.3491 -46.5425,9.6218 -57.3145,13.688 -22.1993,8.385 -36.5806,20.2062 -43.4403,39.6715 -6.863,19.4654 -6.2044,46.5846 -4.8376,66.6469 1.3633,20.0624 3.461,33.0755 7.3766,48.6906 2.055,8.1965 4.6171,17.1105 13.2386,24.9646 7.7916,7.1075 20.5626,13.3478 42.3996,17.3984 45.9695,8.5289 134.7701,8.455 173.4912,-9.0366 38.7245,-17.4896 45.2581,-37.9195 43.1439,-65.1788 -2.1109,-27.2592 -2.977,-37.865 -2.6148,-58.3804 0.3623,-20.5135 4.5348,-115.2617 1.6698,-178.2878 -2.8651,-63.0261 8.1868,-137.1558 -0.7871,-200.705 -8.974,-63.5492 -16.4034,-57.6435 -26.5463,-71.4443 -10.143,-13.8007 -36.2909,-28.352 -52.8555,-34.0069 -16.5648,-5.6549 -25.9207,-8.21 -45.7621,-12.3501 -19.8381,-4.14 -59.5801,-9.4585 -88.9718,-11.1989 -29.3882,-1.7404 -62.1882,0.043 -100.6033,4.7915 -38.4247,4.7525 -74.6398,12.039 -102.8754,42.3745 -28.2358,30.3356 -41.1484,89.879 -56.8699,84.3544 -15.725,-5.5265 -15.3265,-75.8409 -75.282,-105.9666 -59.9655,-30.1255 -135.0039,-31.7142 -198.2197,-30.3647 -63.2159,1.3515 -128.8621,18.9286 -150.1657,40.2277 -21.3035,21.3011 -22.4133,34.007 -30.1951,58.7558 z m 1013.617,207.935 c -12.2045,4.4745 -12.7611,11.4322 -13.6042,19.547 -0.8397,8.1167 -1.9627,17.3924 -1.9627,36.2744 0,18.882 1.123,47.3702 2.2394,70.0635 1.123,22.6875 2.246,39.586 2.246,57.8049 0,18.2189 -1.123,37.762 -0.5599,54.1627 0.5599,16.3948 2.8058,29.6492 6.5963,41.6881 3.7871,12.0409 9.1287,22.8684 17.2694,30.637 8.144,7.7667 19.0938,12.4726 32.1348,16.3346 13.041,3.86 28.1665,6.8741 49.7434,8.9937 21.5769,2.1196 49.5953,3.3447 102.9941,3.5742 53.3923,0.2275 132.1651,-0.5406 178.1807,-4.9588 46.0123,-4.4239 59.2772,-12.4978 69.519,-19.508 10.2385,-7.0084 17.4604,-12.9491 21.8041,-24.78 4.3437,-11.8289 5.8124,-29.548 7.4097,-45.1981 1.6038,-15.65 3.336,-29.2311 4.0802,-43.6891 0.7377,-14.456 0.4874,-29.7891 0,-40.7431 -0.5005,-10.9519 -1.2382,-17.5207 -1.1592,-33.1376 0.079,-15.6151 0.9847,-40.2726 -0.1712,-57.1497 -1.1526,-16.8771 -4.3635,-25.9719 38.9121,-29.8008 43.2691,-3.8269 133.018,-2.3879 209.3144,-1.7307 76.2996,0.6515 139.1401,0.5212 191.9693,0.527 52.8192,0.01 95.6173,0.1478 124.785,0.4726 29.1677,0.3286 44.7016,0.842 46.6247,5.8959 1.9266,5.0521 -9.751,14.6428 -26.8129,29.9332 -17.0653,15.2922 -39.505,36.2821 -56.1883,51.5704 -16.6766,15.2923 -27.5903,24.8811 -42.7355,39.5452 -15.1552,14.6622 -34.5487,34.3959 -52.8983,52.1597 -18.343,17.762 -35.6421,33.552 -53.2935,51.3373 -17.6514,17.7832 -35.6487,37.5636 -54.0675,55.7902 -18.4252,18.2286 -37.2622,34.8996 -61.9182,56.9784 -24.6626,22.0789 -55.1443,49.5618 -80.1033,70.9037 -24.9623,21.3438 -44.3986,36.5505 -50.4876,47.8407 -6.0892,11.2923 1.1624,18.6701 30.1292,22.1917 28.9668,3.5197 79.6455,3.1833 150.5442,2.5883 70.899,-0.595 162.0146,-1.4487 259.5058,-1.8747 97.4946,-0.4277 201.358,-0.4277 286.3089,0.012 84.9474,0.4375 150.9789,1.3125 245.717,1.8259 94.7481,0.5133 218.2061,0.6631 313.2208,0.9782 95.0113,0.3111 161.5862,0.7894 203.2712,1.295 41.6916,0.4978 58.4935,1.0249 66.4695,-5.6684 7.976,-6.6972 7.1297,-20.6088 -1.1889,-26.8995 -8.3218,-6.2889 -24.1225,-4.9509 -74.0799,-4.5349 -49.9609,0.4142 -134.0818,-0.093 -225.1511,-0.3733 -91.0663,-0.2839 -189.0811,-0.3403 -268.5126,-1.0345 -79.4347,-0.6962 -140.2794,-2.0263 -207.9049,-3.0764 -67.6286,-1.052 -142.0347,-1.8201 -206.9728,-2.1098 -64.9383,-0.2879 -120.4217,-0.099 -171.5746,0.3189 -51.1595,0.4122 -98.005,1.0481 -127.3472,-0.084 -29.3422,-1.1336 -41.1811,-4.0292 -29.0886,-22.8859 12.0893,-18.8566 48.1165,-53.6706 123.1747,-126.198 75.0516,-72.5293 189.1304,-182.77 249.6459,-243.2895 60.5121,-60.5196 67.4574,-71.3198 72.361,-79.1565 4.9003,-7.8348 7.7588,-12.704 -9.7939,-15.1795 -17.5625,-2.4793 -55.5361,-2.5688 -97.5242,-2.7749 -41.9945,-0.21 -88.0002,-0.5406 -146.0656,-0.7059 -58.0653,-0.1673 -128.1836,-0.1673 -198.8717,-0.3306 -70.688,-0.1653 -141.9359,-0.4998 -202.9848,-0.7234 -61.0523,-0.2276 -111.9021,-0.3481 -158.4644,-1.0112 -46.5623,-0.6631 -88.8368,-1.8649 -119.7927,-2.1351 -30.9558,-0.2723 -50.5931,0.3889 -74.1525,1.5499 -23.5626,1.1608 -51.0541,2.8157 -65.353,16.8945 -14.3089,14.0769 -15.4318,40.5797 -13.6898,62.1005 1.7487,21.5208 6.3492,38.0556 19.1795,49.0037 12.8269,10.9441 33.867,16.2975 51.5678,21.0696 17.6943,4.7739 32.0427,8.9684 41.774,15.2825 9.7281,6.3141 14.839,14.7497 17.1443,27.9399 2.2987,13.1843 1.7948,31.1212 -1.2448,43.9749 -3.0364,12.8577 -8.6018,20.6302 -14.8918,26.6195 -6.2867,5.9874 -13.2978,10.1897 -27.4025,13.4158 -14.1048,3.2202 -35.3128,5.4662 -60.5846,5.2154 -25.2718,-0.2509 -54.6043,-2.9947 -73.6717,-7.3195 -19.0608,-4.3248 -27.8504,-10.2324 -34.0218,-18.6798 -6.1714,-8.4492 -9.7215,-19.4361 -10.8806,-39.7493 -1.156,-20.3151 0.089,-49.9546 1.0801,-71.5648 0.9946,-21.6122 1.7388,-35.1951 3.3624,-56.9784 1.6202,-21.7833 4.1197,-51.7728 -6.2638,-67.7611 -10.3866,-15.9905 -33.6661,-17.9837 -57.2254,-17.9837 -23.566,0 -47.4119,1.9932 -59.6164,6.4677 z m 528.0116,-279.8498 c 40.4698,-1.9835 121.2054,-0.1051 339.431,0.2625 218.2225,0.3656 573.9219,-0.7817 767.238,-1.264 193.3062,-0.4861 224.2226,-0.3131 247.9301,-0.1808 23.701,0.1342 40.1965,0.2217 55.5823,0.4355 15.3855,0.2159 29.6681,0.5543 40.305,1.7191 10.6435,1.1667 17.6415,3.1599 -6.1912,28.636 -23.8293,25.4721 -78.4894,74.4253 -161.2238,154.7077 -82.7313,80.2823 -193.5368,191.8941 -264.3961,263.8206 -70.856,71.9226 -101.7625,104.1599 -113.5093,120.1795 -11.75,16.0176 -4.3404,15.8192 26.5728,16.0526 30.9031,0.2314 85.3064,0.8925 174.614,1.2484 89.311,0.3578 213.5297,0.4122 288.2947,0.5075 74.7615,0.099 100.0729,0.247 113.8746,-11.3292 13.8017,-11.5761 16.1069,-34.8703 16.6766,-67.625 0.5664,-32.7566 -0.596,-74.9698 -0.3886,-103.1741 0.2074,-28.2063 1.7816,-42.4096 12.5931,-57.6591 10.8115,-15.2494 30.8736,-31.5431 73.0427,-40.0624 42.1725,-8.5173 106.4652,-9.2602 162.0935,-9.4274 55.6251,-0.1711 102.5957,0.2295 141.8405,4.457 39.2415,4.2257 70.7539,12.2763 88.3889,28.5505 17.6415,16.2723 21.4056,40.7722 22.8019,68.8132 1.3963,28.041 0.4215,59.6211 -1.1296,90.2387 -1.5379,30.6137 -3.6521,60.2609 -6.6127,80.9766 -2.9605,20.7138 -6.7675,32.496 -19.2255,43.5005 -12.4515,11.0044 -33.551,21.2252 -65.7319,25.8533 -32.1809,4.6301 -75.4434,3.6578 -159.2909,2.6971 -83.8509,-0.9567 -208.2837,-1.9037 -333.2169,-2.8527 -124.9364,-0.9528 -250.367,-1.9037 -378.6395,-2.2362 -128.2726,-0.3306 -259.3839,-0.037 -334.5309,0.1341 -75.1437,0.1634 -94.3363,0.2081 -97.3594,-5.8804 -3.0232,-6.0943 10.1166,-18.3161 102.039,-108.7765 91.9291,-90.4565 262.6442,-259.1457 357.5271,-351.189 94.8863,-92.0472 113.9374,-107.4522 104.7956,-115.672 -9.1452,-8.2178 -46.4931,-9.2582 -113.0548,-9.6471 -66.5551,-0.3889 -162.3306,-0.1303 -278.7543,-0.2606 -116.427,-0.1283 -253.4957,-0.6495 -365.7501,-1.0364 -112.2513,-0.389 -199.6786,-0.6495 -269.5302,-0.5192 -69.8582,0.1302 -122.1341,0.6495 -155.3062,0.01 -33.1722,-0.6514 -47.2276,-2.4638 -52.8324,-7.7122 -5.5985,-5.2524 -2.7367,-13.9349 -1.1955,-21.198 1.5347,-7.2669 1.7454,-13.1104 42.2284,-15.09 z m 1870.2019,353.4583 c -21.129,-2.1818 -44.5205,-2.4229 -71.1952,-2.3004 -26.6681,0.1186 -56.6263,0.6067 -78.1702,4.4803 -21.5374,3.8776 -34.6672,11.1484 -41.6455,23.6268 -6.9749,12.4765 -7.7949,30.1664 -8.8224,55.2458 -1.0209,25.0774 -2.2592,57.5443 -1.2317,80.8035 1.0275,23.2613 4.3076,37.3109 20.8327,44.7159 16.5285,7.403 46.2889,8.1555 76.3358,8.7429 30.0503,0.5833 60.3871,1.0014 87.3582,-0.2237 26.9711,-1.227 50.5798,-4.0914 63.9831,-14.0905 13.4032,-9.9971 16.6042,-27.129 18.9094,-44.2297 2.302,-17.1027 3.718,-34.1819 4.0704,-51.2633 0.3491,-17.0754 -0.3524,-34.1586 -2.4534,-50.0051 -2.1011,-15.8484 -5.5952,-30.4678 -16.7788,-39.833 -11.1869,-9.369 -30.0601,-13.4896 -51.1924,-15.6695 z m 251.5098,-13.4254 c -12.4021,24.9257 -8.7565,63.2983 -9.132,104.5995 -0.3688,41.3011 -4.7553,85.5327 -3.7048,116.0025 1.0538,30.4659 7.5546,47.1758 22.4035,57.4452 14.8457,10.2694 38.0527,14.1001 61.7833,15.7083 23.7274,1.6004 47.9882,0.9763 68.5113,-0.63 20.5329,-1.6101 37.3347,-4.2081 50.0431,-10.1449 12.7018,-5.9369 21.3167,-15.2184 26.5397,-28.4513 5.2263,-13.2349 7.0573,-30.4192 4.8179,-45.8923 -2.236,-15.4731 -8.549,-29.235 -21.9523,-38.958 -13.4,-9.7287 -33.8967,-15.4205 -54.2814,-21.968 -20.3946,-6.5455 -40.6707,-13.9485 -51.8214,-26.4016 -11.154,-12.4591 -13.1761,-29.972 -12.8335,-47.4422 0.3358,-17.474 3.0329,-34.9054 14.3483,-44.9901 11.3219,-10.0865 31.2654,-12.8264 69.7692,-14.0593 38.5039,-1.2329 95.5581,-0.9587 125.7962,5.8026 30.2412,6.7633 33.6529,20.0099 35.0591,48.8831 1.4095,28.8713 0.8069,73.3617 -1.91,113.5855 -2.7103,40.218 -7.5316,76.1715 4.64,94.0481 12.1749,17.8728 41.3459,17.6724 65.6825,17.618 24.3365,-0.056 43.8289,0.031 53.0992,-10.0283 9.2604,-10.0613 8.2922,-30.2636 8.3877,-54.5924 0.096,-24.3307 1.258,-52.7839 1.1428,-80.156 -0.1153,-27.3739 -1.5083,-53.6726 -1.7092,-77.2196 -0.2009,-23.5432 0.7805,-44.3386 -4.4689,-61.521 -5.246,-17.1805 -16.7293,-30.7421 -38.2634,-40.6711 -21.5341,-9.9291 -53.1124,-16.2276 -91.2606,-19.6151 -38.1383,-3.3933 -82.8497,-3.8775 -125.8388,-3.1969 -42.9958,0.6768 -84.2791,2.5183 -119.144,9.1784 -34.8614,6.6623 -63.3014,18.1392 -75.7035,43.0669 z m 669.9443,128.5627 c 30.5047,0.7914 77.2974,0.8303 115.2447,0.698 37.9473,-0.1342 67.0392,-0.4375 91.524,-2.5532 24.4848,-2.1137 44.3688,-6.0457 59.1589,-15.2805 14.7925,-9.2349 24.4943,-23.7727 29.6744,-38.9405 5.1771,-15.1697 5.8355,-30.9656 2.4043,-48.7645 -3.4282,-17.8007 -10.9436,-37.6083 -35.7674,-50.044 -24.8303,-12.4375 -66.9798,-17.4993 -125.8223,-19.3467 -58.8425,-1.8454 -134.3848,-0.4667 -179.6165,3.475 -45.2318,3.9378 -60.1532,10.4502 -71.8933,18.1313 -11.7337,7.6753 -20.2893,16.5291 -25.071,37.3692 -4.7751,20.8382 -5.7828,53.6687 -6.2867,83.0515 -0.4973,29.3847 -0.4973,55.3216 -0.1252,79.4715 0.3787,24.146 1.1395,46.5068 5.2362,62.1861 4.1,15.6772 11.5426,24.671 19.2354,32.3229 7.6996,7.652 15.6492,13.9563 29.4148,18.3783 13.7687,4.4201 33.3598,6.9558 66.69,7.9884 33.3237,1.0345 80.3964,0.5659 126.5865,0.5542 46.1934,-0.01 91.5009,0.4375 118.7257,-3.8678 27.2313,-4.3053 36.3696,-13.3651 42.7518,-22.9169 6.3925,-9.5538 10.0211,-19.6016 10.3476,-36.817 0.3259,-17.2174 -2.6545,-41.6026 -40.1211,-53.167 -37.4631,-11.5645 -109.4125,-10.3063 -141.9788,0.2547 -32.5662,10.5572 -25.7559,30.4153 -37.6969,40.1228 -11.9312,9.7035 -42.6072,9.2523 -63.2587,8.1205 -20.6449,-1.1336 -31.2654,-2.9402 -37.2129,-10.8877 -5.9442,-7.9456 -7.222,-22.0205 -8.2889,-38.6137 -1.0604,-16.5913 -1.9134,-35.6988 4.7619,-44.4806 6.6819,-8.7798 20.8853,-7.2338 51.3835,-6.4443 z m 32.5432,-109.1693 c -6.5864,11.6734 -6.2077,28.7994 -0.247,40.2335 5.964,11.4323 17.5098,17.1786 37.8485,20.6243 20.3353,3.4458 49.4569,4.5971 76.4478,4.6146 26.9909,0.019 51.8445,-1.0948 67.4706,-8.2082 15.6328,-7.1191 22.0347,-20.2353 22.5947,-33.4683 0.566,-13.2329 -4.7028,-26.5747 -19.6242,-34.5612 -14.9214,-7.9864 -39.4852,-10.6155 -66.2226,-11.9495 -26.7373,-1.3359 -55.6513,-1.3728 -76.8824,1.719 -21.2377,3.0958 -34.7892,9.3205 -41.3854,20.9958 z m -826.278,-641.5688 c 0.9715,5.579 15.58,10.3024 71.6793,28.4435 56.0959,18.143 153.6893,49.7056 205.9388,67.4598 52.2463,17.7521 59.1455,21.6996 65.1325,26.1741 6.0001,4.4823 11.0815,9.4994 15.7316,15.1815 4.6433,5.684 8.8487,12.0253 11.6874,18.913 2.8453,6.8859 4.324,14.3122 3.9716,20.8169 -0.3524,6.5105 -2.5391,12.0915 -6.7708,18.6175 -4.2252,6.5299 -10.4888,13.9932 -15.6558,18.8022 -5.1604,4.8071 -9.2308,6.9519 -14.895,9.371 -5.6511,2.4191 -12.8961,5.1123 -22.657,7.5566 -9.7577,2.4425 -22.0281,4.6321 -37.0451,5.7774 -15.0168,1.1416 -32.7835,1.2407 -47.3822,0.1264 -14.6019,-1.1162 -26.0259,-3.4419 -73.6453,-18.0496 -47.616,-14.6039 -131.4175,-41.4879 -175.7931,-56.2551 -44.3756,-14.7633 -49.3284,-17.406 -55.5262,-19.9554 -6.1846,-2.5493 -13.6372,-4.9975 -21.824,-6.6543 -8.1835,-1.651 -17.1146,-2.5027 -25.0841,-2.1566 -7.9662,0.352 -14.9675,1.9038 -21.2937,4.2626 -6.3097,2.3568 -11.9377,5.5206 -15.9653,9.5421 -4.0309,4.0214 -6.4777,8.9081 -11.0849,12.5679 -4.6005,3.6655 -11.3679,6.1079 -19.2387,8.247 -7.864,2.1448 -16.8446,3.9805 -26.9316,5.2815 -10.0935,1.3028 -21.3003,2.0709 -33.8374,2.4443 -12.5437,0.3734 -26.4212,0.35 -38.3556,-0.9334 -11.9246,-1.2854 -21.903,-3.823 -32.5136,-2.8722 -10.6073,0.9587 -21.8469,5.4138 -22.1927,11.8523 -0.3457,6.4405 10.2056,14.8683 21.1324,21.9039 10.9399,7.0413 22.2717,12.6923 35.8429,17.931 13.5777,5.2368 29.4047,10.0594 46.3515,13.3341 16.9631,3.2844 35.0328,5.017 50.2802,5.861 15.2573,0.8478 27.6758,0.805 43.5293,-0.8421 15.8598,-1.6431 35.1348,-4.8886 52.2857,-6.8196 17.1541,-1.929 32.1941,-2.5435 47.4481,-2.7594 15.2605,-0.2158 30.7616,-0.034 43.0847,1.6218 12.3263,1.6606 21.488,4.7974 31.8088,9.1162 10.3208,4.3268 21.7942,9.8358 30.992,15.6229 9.211,5.7968 16.1399,11.8601 22.8382,17.6666 6.7016,5.8026 13.1629,11.3408 19.6603,18.6019 6.4876,7.2669 13.0047,16.2588 21.1421,26.2986 8.1309,10.0419 17.8721,21.1397 27.6035,31.8369 9.738,10.6952 19.4693,20.9938 32.1612,31.1465 12.6853,10.1527 28.3377,20.1537 45.5546,29.0833 17.2298,8.9334 36.0404,16.7934 56.873,23.5801 20.8394,6.7886 43.7104,12.5037 67.0228,17.019 23.3025,4.5192 47.0529,7.8406 73.7343,9.4196 26.6779,1.581 56.2935,1.4195 83.6038,-0.4551 27.3137,-1.8745 52.3155,-5.4584 73.8924,-9.4273 21.5835,-3.965 39.7387,-8.3131 55.8357,-13.4449 16.0873,-5.1279 30.1294,-11.0433 43.233,-18.0186 13.1002,-6.9733 25.2783,-15.0025 39.4852,-24.6379 14.1969,-9.6335 30.4288,-20.8674 52.6282,-43.2866 22.2092,-22.4172 50.3856,-56.0178 73.3983,-84.9455 23.0095,-28.9258 40.8618,-53.1787 51.3177,-68.8968 10.469,-15.7181 13.5448,-22.9015 17.0059,-34.3376 3.471,-11.4302 7.324,-27.1154 8.4898,-40.5252 1.1494,-13.4119 -0.3886,-24.5505 -6.0792,-38.4543 -5.6807,-13.9058 -15.5141,-30.5748 -29.8954,-47.2185 -14.388,-16.6457 -33.327,-33.2681 -52.2002,-45.5093 -18.8733,-12.2392 -37.6806,-20.1012 -57.6109,-27.2884 -19.9336,-7.193 -40.9935,-13.7132 -64.7866,-19.8212 -23.7834,-6.1079 -50.3067,-11.8076 -72.2162,-14.7361 -21.9193,-2.9363 -39.2348,-3.1055 -60.4132,-2.5941 -21.1818,0.5134 -46.2231,1.7171 -69.4038,5.4254 -23.1741,3.7083 -44.4974,9.931 -60.1368,15.1931 -15.6359,5.2582 -25.5912,9.5616 -38.0559,14.1411 -12.458,4.5834 -27.4157,9.4409 -43.5457,12.1828 -16.1398,2.7419 -33.4355,3.3661 -46.8849,3.1755 -13.4428,-0.1905 -23.0292,-1.2017 -31.2424,-2.2188 -8.2165,-1.015 -15.0696,-2.0378 -23.7603,-4.1186 -8.6873,-2.0729 -19.2189,-5.2037 -29.7604,-9.2601 -10.5447,-4.0564 -21.0995,-9.0443 -31.4631,-15.6209 -10.3504,-6.5805 -20.5032,-14.7556 -32.0755,-26.2345 -11.5755,-11.4847 -24.5671,-26.2811 -35.81,-36.4047 -11.233,-10.1235 -20.7207,-15.582 -32.0558,-20.0836 -11.3318,-4.5096 -24.5012,-8.0682 -39.2382,-10.9286 -14.7469,-2.8567 -31.0547,-5.0249 -47.5041,-6.0458 -16.4461,-1.0267 -33.024,-0.9081 -48.4426,0.8517 -15.422,1.7599 -29.6814,5.1668 -31.9603,12.0799 -2.2723,6.913 7.4393,17.3418 19.6734,24.667 12.2408,7.3273 27.0008,11.549 38.9451,17.83 11.9509,6.2791 21.083,14.6097 26.7275,21.3671 5.6544,6.7614 7.8245,11.9437 9.2703,17.1047 1.4588,5.157 2.1866,10.2849 1.6696,14.9831 -0.5137,4.7097 -2.2756,8.9879 -4.5018,12.7272 -2.2229,3.7395 -4.9035,6.9403 -12.5766,11.759 -7.6633,4.8167 -20.3222,11.2592 -19.3507,16.8421 z m -339.8197,-96.615 c -5.9211,0.1089 -9.0035,3.5547 -11.3615,6.1916 -2.3513,2.6368 -3.9847,4.4589 -10.5414,11.0375 -6.56,6.5785 -18.0499,17.9135 -22.9436,23.2942 -4.8772,5.3884 -3.1615,4.8245 105.9217,38.4484 109.0735,33.6298 325.5043,101.4474 435.4998,136.1213 109.9986,34.674 113.5619,36.1946 116.5324,38.2384 2.9802,2.0477 5.3776,4.6087 6.6027,7.3467 1.2218,2.738 1.2646,5.6607 0.2734,8.0642 -0.9913,2.4113 -3.0265,4.3111 -6.8334,5.7035 -3.8135,1.3923 -9.3954,2.281 -14.839,2.9966 -5.4371,0.7195 -10.7259,1.2601 -16.1861,0.7778 -5.46,-0.488 -11.0848,-2.001 -150.6793,-45.3517 -139.5911,-43.3527 -413.1587,-128.5373 -550.2438,-171.2134 -137.075,-42.6798 -137.6678,-42.847 -133.7258,-44.8441 3.9484,-1.9952 12.4381,-5.8163 18.7116,-9.371 6.2834,-3.5489 10.3537,-6.8372 13.8346,-10.1157 3.4876,-3.2786 6.3822,-6.5572 7.9695,-8.6262 1.5938,-2.0691 1.8672,-2.9267 11.0486,-0.144 9.1748,2.7828 27.2478,9.2038 36.2842,12.2452 9.03,3.0412 9.0266,2.699 16.568,-4.7235 7.548,-7.4205 22.6407,-21.9233 30.1853,-29.4294 7.5348,-7.5061 7.5315,-8.0234 -5.6545,-12.8441 -13.1858,-4.8186 -39.5476,-13.9446 -53.0299,-18.5046 -13.4724,-4.5621 -14.0619,-4.5601 -16.1696,-7.3778 -2.1076,-2.8216 -5.73,-8.4648 -10.077,-13.0774 -4.3437,-4.6086 -9.4087,-8.1848 -14.6053,-10.9908 -5.2,-2.8002 -10.5381,-4.8343 -15.422,-6.4367 -4.8903,-1.6023 -9.3262,-2.7826 -15.5304,-4.0369 -6.2076,-1.2542 -14.1837,-2.5805 -23.3321,-3.475 -9.1518,-0.8945 -19.466,-1.3534 -27.1358,-1.9971 -7.6699,-0.6475 -12.6919,-1.4739 -15.7941,-1.8881 -3.1022,-0.4123 -4.2745,-0.4065 -3.8597,-1.8707 0.4183,-1.4585 2.4337,-4.3871 3.3789,-9.8844 0.9484,-5.4954 0.8233,-13.5635 -0.4677,-20.6827 -1.2908,-7.1113 -3.7377,-13.2776 -7.3668,-19.0083 -3.6259,-5.7307 -8.4239,-11.0258 -14.8259,-15.5392 -6.4019,-4.5154 -14.4241,-8.2432 -23.3124,-11.5412 -8.8818,-3.3 -18.6558,-6.1682 -29.609,-9.369 -10.9465,-3.2008 -23.0884,-6.7399 -35.6585,-10.1022 -12.5766,-3.368 -25.5879,-6.5532 -37.4104,-8.8109 -11.8192,-2.2538 -22.4463,-3.5644 -31.1535,-4.3753 -8.6973,-0.8109 -15.4812,-1.1201 -24.7548,-0.8964 -9.2802,0.2216 -21.0566,0.9722 -31.7923,1.9757 -10.7358,1.0053 -20.4409,2.2576 -34.2392,5.5945 -13.7952,3.3369 -31.6836,8.7565 -43.404,12.5932 -11.7271,3.8386 -17.2861,6.1002 -24.745,9.6607 -7.4558,3.5586 -16.8117,8.4182 -27.722,16.9724 -10.9169,8.5562 -23.3947,20.8129 -29.8198,34.0634 -6.4183,13.2504 -6.7839,27.5023 -5.2822,39.1621 1.5083,11.6636 4.8969,20.7449 10.0476,29.4955 5.1603,8.7546 12.076,17.1804 27.0797,27.8485 15.0004,10.6719 38.0724,23.5859 63.8613,34.67 25.7855,11.0862 54.2814,20.3483 78.1339,27.098 23.8558,6.7534 43.0649,10.9888 60.4397,12.9742 17.3847,1.9835 32.9252,1.7035 45.4788,2.8858 12.5536,1.1784 22.117,3.8133 110.5454,31.4498 88.4282,27.6385 255.7216,80.2825 342.1774,108.3623 86.4525,28.0818 92.0806,31.6093 95.4099,34.921 3.3295,3.3077 4.3602,6.4093 2.4501,10.0982 -1.9132,3.6831 -6.7773,7.9612 -16.6041,10.0244 -9.8301,2.0671 -24.6199,1.9154 -43.684,0.3306 -19.061,-1.5887 -42.3996,-4.6126 -69.1897,-8.5679 -26.7867,-3.9514 -57.0247,-8.8381 -88.188,-11.1425 -31.1567,-2.3063 -63.2388,-2.038 -87.6348,0.8887 -24.3892,2.9246 -41.0988,8.5095 -51.4492,15.5159 -10.3503,7.0102 -14.3416,15.4419 -15.8368,23.687 -1.4885,8.247 -0.4808,16.3073 2.7201,23.1581 3.201,6.8489 8.5918,12.4824 15.1518,18.6992 6.5633,6.213 14.2924,13.0093 24.9162,21.1066 10.6336,8.1011 24.1456,17.5032 40.5061,26.6117 16.3671,9.1085 35.5795,17.9174 49.7862,24.2782 14.2036,6.351 23.3915,10.248 37.6115,15.0609 14.2199,4.8167 33.462,10.5474 53.2703,15.16 19.8184,4.6125 40.1999,8.105 60.1235,10.3141 19.9239,2.209 39.3865,3.1327 61.6221,3.0102 22.2388,-0.1225 47.2702,-1.2854 70.3686,-3.0433 23.095,-1.756 44.2768,-4.105 64.566,-6.6194 20.2893,-2.5124 39.696,-5.1939 54.6898,-7.0744 14.9971,-1.8862 25.5846,-2.9752 34.7463,-1.2212 9.1616,1.754 16.894,6.3432 23.6055,11.7979 6.7181,5.4545 12.4186,11.7803 25.0314,27.1581 12.6162,15.3778 32.148,39.8174 52.7929,60.2122 20.6483,20.4007 42.4096,36.7586 63.9832,50.4622 21.5835,13.6938 42.9694,24.739 67.5793,34.8139 24.6132,10.077 52.4472,19.1971 79.9583,26.1684 27.5047,6.9733 54.6931,11.8017 83.4788,14.4911 28.7791,2.6855 59.1652,3.2358 89.6568,3.1541 30.4948,-0.08 61.0917,-0.7875 91.9685,-3.6286 30.8768,-2.8391 62.027,-7.8192 87.4306,-13.1921 25.3938,-5.371 45.0507,-11.1444 61.174,-16.8129 16.1103,-5.6627 28.6935,-11.2222 41.8136,-18.528 13.1298,-7.2962 26.8097,-16.3366 40.2195,-25.2505 13.4132,-8.9141 26.5694,-17.6978 38.5302,-26.501 11.9609,-8.7934 22.7131,-17.6082 30.8538,-24.6029 8.144,-7.0005 13.6568,-12.177 34.3214,-37.8592 20.6714,-25.6919 56.4814,-71.8837 78.8124,-103.4172 22.3541,-31.5334 31.2161,-48.4028 37.3315,-62.3377 6.1187,-13.9369 9.4777,-24.9374 10.7357,-39.0221 1.2547,-14.0788 0.3952,-31.2418 -2.7992,-46.7538 -3.1878,-15.5178 -8.7006,-29.3905 -17.0389,-44.3638 -8.335,-14.9734 -19.489,-31.0454 -35.5071,-47.1817 -16.008,-16.1303 -36.8901,-32.3229 -57.2683,-45.3439 -20.3881,-13.017 -40.2887,-22.8683 -63.117,-32.3502 -22.835,-9.4876 -48.6139,-18.6194 -72.5915,-25.6102 -23.9743,-6.9908 -46.144,-11.8503 -71.2579,-16.004 -25.1038,-4.1516 -53.1485,-7.6053 -78.9604,-9.6101 -25.8087,-2.0049 -49.3878,-2.5611 -72.9373,-1.0598 -23.543,1.5012 -47.0629,5.0617 -69.5157,10.421 -22.4529,5.3574 -43.8519,12.5096 -59.9655,18.0924 -16.1168,5.5752 -26.9579,9.585 -37.8057,12.7333 -10.8543,3.1463 -21.7185,5.4389 -31.8614,6.9538 -10.1364,1.5129 -19.5582,2.2518 -28.8416,1.8746 -9.2901,-0.3812 -18.4485,-1.8707 -27.6397,-5.5985 -9.188,-3.7258 -18.4154,-9.684 -29.6156,-19.5781 -11.2099,-9.8941 -24.386,-23.7279 -41.2701,-38.8238 -16.8841,-15.0977 -37.4697,-31.4634 -54.0048,-43.2282 -16.5284,-11.7628 -29.0096,-18.9267 -43.5621,-25.9739 -14.5427,-7.0413 -31.1568,-13.9641 -49.7468,-20.2529 -18.5932,-6.2907 -39.1658,-11.9456 -63.1269,-15.8659 -23.9447,-3.9203 -51.2847,-6.1079 -76.2271,-7.6772 -24.9393,-1.5732 -47.4712,-2.5299 -71.4061,-2.5085 -23.9413,0.015 -49.2757,1.0092 -71.3763,2.9227 -22.0939,1.9154 -40.9573,4.7487 -56.063,8.6281 -15.1058,3.8834 -26.4574,8.8091 -36.0833,16.6769 -9.6195,7.8599 -17.5132,18.6621 -19.3375,27.8776 -1.8212,9.2135 2.4236,16.8401 11.1078,25.8533 8.6841,9.0151 21.814,19.409 39.0603,29.0949 17.2431,9.6841 38.606,18.6545 60.5352,27.0318 21.9326,8.3773 44.4381,16.1576 66.8055,24.109 22.3573,7.9514 44.5862,16.0643 59.3693,23.2242 14.7733,7.162 22.1104,13.3594 23.3223,18.4561 1.2152,5.1007 -3.6916,9.1007 -12.1485,10.9987 -8.4536,1.9018 -20.4638,1.7093 -34.8781,0.4608 -14.4141,-1.2523 -31.2258,-3.5586 -54.3868,-8.3539 -23.1576,-4.7935 -52.6678,-12.0721 -73.6519,-17.8047 -20.9709,-5.7288 -33.429,-9.9057 -45.0737,-14.003 -11.6546,-4.0953 -22.5056,-8.1109 -32.3159,-11.7395 -9.8104,-3.6286 -18.5736,-6.8702 -24.4947,-6.7691 z m -418.7569,-145.6187 c -8.4207,-5.8182 -23.6583,-10.2246 -36.8903,-13.5596 -13.232,-3.331 -24.4518,-5.5888 -34.552,-7.1288 -10.0969,-1.5344 -19.0576,-2.355 -28.6375,-2.2325 -9.5666,0.1264 -19.7459,1.196 -28.5551,2.4736 -8.8093,1.2795 -16.242,2.771 -25.3871,6.2985 -9.1452,3.5255 -19.9995,9.0871 -28.1303,14.2714 -8.121,5.192 -13.5153,10.0029 -17.905,15.4555 -4.3898,5.4585 -7.7851,11.5626 -8.2824,19.0998 -0.5038,7.5334 1.8738,16.5037 17.1937,25.9097 15.3133,9.404 43.5621,19.2495 65.3169,26.95 21.7646,7.7065 37.012,13.2719 50.1387,17.4003 13.1133,4.1283 24.0994,6.8235 35.5662,8.7895 11.4701,1.9641 23.431,3.2047 35.8792,4.3676 12.4482,1.1629 25.4003,2.2518 35.8693,4.0778 10.4756,1.824 18.4747,4.3909 27.2049,6.0807 8.727,1.6918 18.1882,2.5066 26.7571,1.5226 8.5622,-0.9878 16.2255,-3.7841 22.1499,-7.0044 5.9145,-3.2202 10.0837,-6.8644 14.3747,-10.5105 4.2976,-3.6442 8.7204,-7.2902 10.907,-10.705 2.1802,-3.4166 2.1274,-6.5999 1.0933,-9.1318 -1.0307,-2.5279 -3.0527,-4.4045 -6.4184,-5.3262 -3.3722,-0.9256 -8.1011,-0.8964 -15.5701,-1.2212 -7.4624,-0.3228 -17.6646,-0.9879 -26.6352,-2.3161 -8.9805,-1.328 -16.7129,-3.3115 -24.9623,-6.0223 -8.2461,-2.7068 -17.0125,-6.1391 -24.679,-10.46 -7.6699,-4.3267 -14.2496,-9.5498 -18.185,-14.8877 -3.9419,-5.3359 -5.2329,-10.7944 -5.8026,-16.1304 -0.5598,-5.3321 -0.3918,-10.5513 -1.1098,-16.7798 -0.7179,-6.2208 -2.3249,-13.4547 -10.7488,-19.2807 z m -68.0272,170.3675 c -6.6523,-4.9238 -21.5934,-9.8124 -33.6596,-10.4969 -12.0728,-0.6845 -18.6822,-2.3354 -27.8372,0.2664 -9.1551,2.6019 -15.9489,6.9694 -20.0687,12.8537 -4.1263,5.8941 -5.5753,13.3107 -1.1032,19.8484 4.4623,6.5456 14.8588,12.2199 28.1238,14.4659 13.2615,2.2479 29.4014,1.0676 40.7464,-3.158 11.3351,-4.2315 17.8754,-11.5023 20.7997,-18.954 2.9244,-7.4516 -0.3524,-9.9077 -7.0012,-14.8255 z m -124.5283,-36.9064 c -6.6489,-4.9198 -19.7952,-12.706 -31.8615,-13.3904 -12.0728,-0.6826 -9.4448,0.2314 -18.5998,2.8352 -9.1583,2.6058 -15.9489,6.9674 -20.072,12.8557 -4.1263,5.8901 -5.5786,13.3068 -1.1064,19.8484 4.4688,6.5435 14.8653,12.2198 28.1303,14.4639 13.2616,2.2498 29.3981,1.0695 40.7465,-3.16 11.3351,-4.2276 17.8754,-11.5023 20.803,-18.9519 2.9276,-7.4517 -11.3912,-9.5811 -18.0401,-14.5009 z m -86.3207,-58.0285 c 0.016,-9.6062 -10.4097,-8.8226 -22.4826,-9.5091 -12.0629,-0.6805 -23.589,0.1672 -32.744,2.7691 -9.155,2.6039 -15.9456,6.9656 -20.072,12.8558 -4.1197,5.8901 -5.5752,13.3067 -1.1031,19.8465 4.4688,6.5435 14.8621,12.2216 28.1303,14.4638 13.2616,2.2499 29.4015,1.0695 40.7399,-3.16 11.3449,-4.2275 24.7647,-16.3404 20.8029,-18.9519 -3.9682,-2.6136 -13.2846,-8.7118 -13.2714,-18.3142 z"
   id="path1" />
 </g>
</svg>
