<?xml version="1.0" encoding="UTF-8" standalone="no"?>
<!-- Creator: CorelDRAW -->

<svg
   xml:space="preserve"
   width="210mm"
   height="297mm"
   version="1.1"
   style="shape-rendering:geometricPrecision; text-rendering:geometricPrecision; image-rendering:optimizeQuality; fill-rule:evenodd; clip-rule:evenodd"
   viewBox="0 0 21000 29700"
   id="svg1"
   sodipodi:docname="логотип итоговый.svg"
   inkscape:version="1.3.2 (091e20e, 2023-11-25, custom)"
   xmlns:inkscape="http://www.inkscape.org/namespaces/inkscape"
   xmlns:sodipodi="http://sodipodi.sourceforge.net/DTD/sodipodi-0.dtd"
   xmlns="http://www.w3.org/2000/svg"
   xmlns:svg="http://www.w3.org/2000/svg"><sodipodi:namedview
   id="namedview1"
   pagecolor="#ffffff"
   bordercolor="#000000"
   borderopacity="0.25"
   inkscape:showpageshadow="2"
   inkscape:pageopacity="0.0"
   inkscape:pagecheckerboard="0"
   inkscape:deskcolor="#d1d1d1"
   inkscape:document-units="mm"
   inkscape:zoom="0.52738496"
   inkscape:cx="397.24303"
   inkscape:cy="561.25984"
   inkscape:window-width="1440"
   inkscape:window-height="830"
   inkscape:window-x="-6"
   inkscape:window-y="-6"
   inkscape:window-maximized="1"
   inkscape:current-layer="Слой_x0020_1" />
 <defs
   id="defs1">
  <style
   type="text/css"
   id="style1">
   <![CDATA[
    .str0 {stroke:#2B2A29;stroke-width:20;stroke-miterlimit:22.9256}
    .fil0 {fill:#2B2A29}
   ]]>
  </style>
 </defs>
 <g
   id="Слой_x0020_1"
   inkscape:label="Слой 1">
  <metadata
   id="CorelCorpID_0Corel-Layer" />
  <path
   class="fil0 str0"
   d="m 998.8987,2419.6453 c -12.22593,52.7868 -8.97671,77.0752 -9.1578,142.5205 -0.18109,65.4453 -2.30757,138.5304 -3.97874,187.5802 -1.67636,49.0497 -2.83532,74.8479 -3.54932,122.3962 -0.70882,47.5441 -0.99857,116.8425 -2.37482,182.2919 -1.37627,65.4411 -3.86492,127.0539 -4.4444,178.8287 -0.595,51.7622 0.71917,93.6947 2.53522,128.6134 1.81604,34.9188 4.14431,62.8282 8.12823,92.409 3.97875,29.5849 9.58728,60.8248 31.31253,83.9145 21.7201,23.0857 59.526,38.0005 104.6994,44.8855 45.1631,6.8809 97.6939,5.7196 142.588,-0.17 44.8941,-5.8896 82.1514,-16.5158 106.981,-36.7189 24.8245,-20.2071 37.2367,-49.987 45.1942,-77.7097 7.9626,-27.7227 11.4499,-53.384 13.773,-77.8632 2.3231,-24.4793 3.4769,-47.7806 3.3579,-67.2827 -0.1242,-19.4979 -1.516,-35.1967 -4.9049,-51.6047 -3.389,-16.412 -8.7905,-33.5459 -16.8049,-50.1447 -8.0144,-16.5987 -18.6364,-32.65 -34.5049,-44.8606 -15.8684,-12.2022 -36.9986,-20.5638 -57.2493,-30.0578 -20.2611,-9.498 -66.5831,-10.4271 -96.0538,-31.9035 -29.4655,-21.4763 -37.9972,-52.741 -38.556,-90.053 -0.5588,-37.312 -4.998,-107.7427 -4.372,-165.5604 0.6261,-57.8178 -8.4231,-87.9462 21.6528,-130.3016 30.076,-42.3513 97.725,-29.9375 147.9482,-32.4095 50.2232,-2.4719 118.105,1.7794 155.559,30.738 37.4488,28.9628 44.506,82.6538 47.1085,153.0097 2.5973,70.352 0.745,157.3524 3.3268,243.9753 2.5766,86.6147 9.5821,172.852 9.401,238.795 -0.181,65.943 -7.5643,111.6041 5.6189,151.6328 7.6212,23.1395 7.0572,35.4206 24.871,54.7858 7.7402,8.4114 14.8957,14.1766 25.7816,19.6473 15.5787,7.8266 35.6742,11.2483 55.6351,11.6755 37.7024,0.813 76.5274,2.7955 121.8924,0.3816 24.3536,-1.2941 45.934,-10.8916 62.4854,-27.3867 43.4815,-43.3136 34.6859,-71.7953 32.0007,-135.992 -2.675,-64.1969 -2.8147,-148.4309 -3.2596,-216.9578 -0.445,-68.5269 -1.2107,-121.3676 -5.4275,-201.2341 -4.2167,-79.8707 -15.3872,-200.8484 -1.5987,-262.5898 13.7885,-61.7415 52.567,-64.2466 108.1297,-68.2325 35.0947,-2.5176 147.4101,-5.6366 185.0917,15.3794 21.9892,12.2645 39.9271,29.3693 44.832,59.369 7.9109,48.4027 14.0575,105.7352 16.1167,161.081 1.9195,51.6752 0.295,101.6249 -6.7416,140.9568 -7.0521,39.3858 -26.061,55.1053 -45.2562,69.4477 -18.1346,13.542 -73.123,20.5224 -90.0469,29.1951 -34.8773,17.8845 -57.4719,43.0979 -68.2491,84.6155 -10.7825,41.5177 -9.7477,99.3603 -7.6005,142.1513 2.142,42.791 5.4377,70.5468 11.5895,103.8522 3.2286,17.4822 7.2539,36.4949 20.7992,53.2471 12.2415,15.1596 32.306,28.4693 66.6142,37.1088 72.2227,18.1914 211.7374,18.0338 272.5722,-19.274 60.8401,-37.3037 71.1052,-80.8786 67.7835,-139.0199 -3.3165,-58.1413 -4.6772,-80.7624 -4.1081,-124.5197 0.5692,-43.7533 7.1246,-245.8418 2.6233,-380.2702 -4.5014,-134.4284 12.8623,-292.5397 -1.2366,-428.0839 -14.099,-135.5441 -25.7713,-122.9478 -41.7069,-152.3835 -15.9357,-29.4356 -57.0166,-60.4722 -83.0414,-72.5335 -26.0249,-12.0612 -40.724,-17.5112 -71.8968,-26.3415 -31.1677,-8.8303 -93.6065,-20.174 -139.7837,-23.8862 -46.172,-3.7121 -97.7042,0.091 -158.058,10.2198 -60.3693,10.1368 -117.2668,25.6779 -161.6279,90.3807 -44.3612,64.7029 -64.6482,191.7029 -89.3484,179.9195 -24.7055,-11.7875 -24.0795,-161.7612 -118.2757,-226.0161 -94.2119,-64.2549 -212.1048,-67.6435 -311.4233,-64.765 -99.3185,2.8825 -202.4553,40.3729 -235.9254,85.8017 -33.4701,45.433 -35.2137,72.5335 -47.4397,125.3202 z m 1592.4954,443.5048 c -19.1746,9.5437 -20.049,24.3838 -21.3735,41.6918 -1.3193,17.3122 -3.0836,37.0964 -3.0836,77.3697 0,40.2734 1.7643,101.036 3.5183,149.4386 1.7642,48.3903 3.5286,84.4331 3.5286,123.2921 0,38.8591 -1.7644,80.5426 -0.8796,115.5236 0.8796,34.9686 4.4082,63.2388 10.3634,88.9167 5.95,25.682 14.3421,48.776 27.132,65.3457 12.7951,16.5656 29.9983,26.6028 50.487,34.84 20.4888,8.233 44.2526,14.6618 78.1521,19.1827 33.8995,4.5209 77.9192,7.1339 161.8142,7.6233 83.8847,0.4853 207.6448,-1.153 279.94,-10.5764 72.2899,-9.4358 93.1305,-26.6567 109.2213,-41.6089 16.0857,-14.948 27.4321,-27.619 34.2565,-52.8531 6.8245,-25.2299 9.132,-63.023 11.6414,-96.4031 2.5197,-33.38 5.2412,-62.347 6.4104,-93.1845 1.159,-30.8333 0.7658,-63.5373 0,-86.9009 -0.7864,-23.3594 -1.9454,-37.37 -1.8212,-70.6795 0.1242,-33.3054 1.547,-85.8972 -0.269,-121.8944 -1.8109,-35.9972 -6.8555,-55.3956 61.135,-63.5622 67.9801,-8.1625 208.9848,-5.0933 328.8542,-3.6914 119.8744,1.3895 218.6031,1.1116 301.6031,1.124 82.9844,0.017 150.2246,0.3152 196.05,1.0079 45.8254,0.7009 70.2308,1.7959 73.2523,12.5756 3.0268,10.7755 -15.3199,31.2315 -42.126,63.8443 -26.8112,32.6168 -62.0663,77.3862 -88.2774,109.9948 -26.2007,32.6168 -43.3471,53.0687 -67.1419,84.3459 -23.8104,31.2731 -54.2795,73.3631 -83.1086,111.2515 -28.8187,37.8844 -55.9973,71.563 -83.7295,109.4972 -27.7322,37.9299 -56.0077,80.1195 -84.9454,118.9951 -28.948,38.8798 -58.5428,74.4373 -97.28,121.5294 -38.7474,47.092 -86.6372,105.7103 -125.8503,151.2304 -39.2183,45.5242 -69.7547,77.9586 -79.3213,102.0396 -9.5666,24.0853 1.8264,39.8213 47.3361,47.3327 45.5098,7.5071 125.1312,6.7896 236.5204,5.5205 111.3894,-1.2692 254.5413,-3.09 407.7099,-3.9984 153.1738,-0.9124 316.3539,-0.9124 449.8203,0.025 133.4612,0.9332 237.2034,2.7997 386.0466,3.8946 148.8588,1.0949 342.8238,1.4143 492.1017,2.0863 149.2723,0.6636 253.8682,1.6839 319.3597,2.7623 65.5018,1.0618 91.8991,2.1858 104.4303,-12.0903 12.5312,-14.2844 11.2015,-43.9565 -1.8678,-57.374 -13.0745,-13.4134 -37.8989,-10.5598 -116.3872,-9.6723 -78.4935,0.8835 -210.656,-0.1991 -353.7353,-0.7963 -143.0744,-0.6056 -297.0656,-0.7259 -421.8605,-2.2066 -124.8,-1.4848 -220.3933,-4.3218 -326.6397,-6.5615 -106.2515,-2.2439 -223.151,-3.8821 -325.1755,-4.5001 -102.0245,-0.6139 -189.1946,-0.2116 -269.561,0.6802 -80.3769,0.8792 -153.9758,2.2355 -200.0754,-0.1784 -46.0996,-2.418 -64.6998,-8.5938 -45.7012,-48.8133 18.9935,-40.2194 75.596,-114.4742 193.52,-269.1679 117.9136,-154.6979 297.1432,-389.8304 392.2191,-518.9126 95.0707,-129.0821 105.9825,-152.118 113.6865,-168.8329 7.6988,-16.7108 12.1898,-27.0964 -15.3873,-32.3763 -27.5924,-5.2882 -87.2528,-5.479 -153.2203,-5.9186 -65.9778,-0.448 -138.2574,-1.1531 -229.4839,-1.5057 -91.2265,-0.3567 -201.3896,-0.3567 -312.4477,-0.705 -111.0581,-0.3526 -222.9958,-1.066 -318.9099,-1.543 -95.9192,-0.4853 -175.8096,-0.7424 -248.9637,-2.1567 -73.154,-1.4143 -139.5715,-3.9776 -188.2064,-4.5541 -48.6348,-0.5807 -79.4869,0.8295 -116.5011,3.3057 -37.0193,2.4761 -80.2112,6.0057 -102.6763,36.0344 -22.4807,30.0247 -24.245,86.5525 -21.508,132.4542 2.7473,45.9017 9.9753,81.1689 30.1329,104.52 20.1524,23.3428 53.2086,34.7611 81.0183,44.9394 27.7995,10.1824 50.3423,19.1288 65.6312,32.5962 15.2838,13.4673 23.3136,31.4596 26.9354,59.5929 3.6114,28.1208 2.8198,66.3785 -1.9557,93.7942 -4.7704,27.4241 -13.5143,44.0021 -23.3965,56.7768 -9.877,12.7705 -20.8922,21.7335 -43.0522,28.6144 -22.1599,6.8684 -55.4799,11.6589 -95.1845,11.1239 -39.7046,-0.535 -85.7888,-6.3873 -115.7457,-15.6116 -29.9466,-9.2244 -43.7558,-21.8248 -53.4517,-39.8421 -9.696,-18.0214 -15.2734,-41.4554 -17.0946,-84.7814 -1.8161,-43.3302 0.1396,-106.5482 1.697,-152.6406 1.5625,-46.0967 2.7318,-75.0677 5.2826,-121.5293 2.5455,-46.4617 6.4725,-110.4262 -9.8409,-144.5279 -16.3185,-34.1059 -52.8929,-38.3572 -89.9071,-38.3572 -37.0246,0 -74.4889,4.2513 -93.6634,13.795 z m 829.56,-596.8919 c 63.5822,-4.2306 190.4259,-0.224 533.2807,0.5599 342.8496,0.7798 901.6896,-1.6673 1205.4088,-2.696 303.7038,-1.0369 352.2765,-0.6677 389.5235,-0.3857 37.2367,0.2862 63.1528,0.4729 87.3254,0.9291 24.1722,0.4604 46.6116,1.1821 63.3233,3.6665 16.722,2.4886 27.7166,6.7399 -9.727,61.0778 -37.4384,54.3296 -123.3149,158.7418 -253.2991,329.9761 -129.9792,171.2344 -304.0659,409.2911 -415.3931,562.7032 -111.322,153.4038 -159.8792,222.163 -178.3346,256.331 -18.4605,34.1639 -6.8193,33.7409 41.7484,34.2386 48.552,0.4936 134.0251,1.9038 274.3365,2.6628 140.3166,0.7631 335.4768,0.8793 452.9402,1.0825 117.458,0.2115 157.2247,0.5268 178.9086,-24.164 21.6839,-24.6908 25.3057,-74.3751 26.2007,-144.2375 0.8899,-69.8666 -0.9364,-159.9032 -0.6105,-220.0602 0.3259,-60.1612 2.7991,-90.4554 19.7851,-122.981 16.9859,-32.5256 48.5055,-67.2785 114.7574,-85.4492 66.2572,-18.1666 167.2676,-19.751 254.6654,-20.1077 87.3926,-0.365 161.1882,0.4894 222.8458,9.5064 61.6524,9.0128 111.1616,26.1839 138.8679,60.8953 27.7167,34.7073 33.6305,86.9631 35.8242,146.7717 2.1937,59.8087 0.6622,127.1659 -1.7747,192.4702 -2.4162,65.296 -5.7378,128.5305 -10.3892,172.7151 -4.6513,44.1804 -10.6324,69.3108 -30.2053,92.7822 -19.5625,23.4714 -52.7119,45.2712 -103.2714,55.1426 -50.5595,9.8755 -118.5292,7.8017 -250.2623,5.7527 -131.7383,-2.0406 -327.2348,-4.0605 -523.5177,-6.0846 -196.2877,-2.0322 -393.3519,-4.0604 -594.8811,-4.7697 -201.5293,-0.7051 -407.5184,-0.079 -525.582,0.2862 -118.0584,0.3484 -148.212,0.4438 -152.9617,-12.5424 -4.7496,-12.9986 15.8943,-39.0664 160.3138,-232.0094 144.4299,-192.9348 412.6406,-552.7323 561.7115,-749.0515 149.076,-196.3274 179.0072,-229.1849 164.6444,-246.7168 -14.368,-17.5278 -73.0453,-19.7469 -177.6206,-20.5764 -104.5648,-0.8295 -255.0379,-0.2779 -437.9513,-0.5557 -182.9187,-0.2738 -398.2675,-1.3854 -574.6307,-2.2107 -176.3582,-0.8295 -313.7153,-1.3853 -423.4593,-1.1074 -109.7543,0.2779 -191.885,1.3853 -244.0019,0.01 -52.1168,-1.3895 -74.1992,-5.255 -83.0051,-16.4495 -8.7957,-11.2027 -4.2995,-29.7218 -1.8782,-45.2132 2.4111,-15.4996 2.7422,-27.9632 66.3452,-32.1855 z m 2938.2773,753.8916 c -33.1957,-4.6535 -69.9461,-5.1679 -111.8548,-4.9065 -41.8984,0.253 -88.9656,1.294 -122.8133,9.5561 -33.8374,8.2703 -54.4658,23.7783 -65.4293,50.3935 -10.9584,26.6111 -12.2467,64.342 -13.861,117.8338 -1.6039,53.4877 -3.5493,122.7363 -1.935,172.3459 1.6143,49.6139 6.7675,79.5804 32.7302,95.3745 25.9679,15.79 72.7245,17.3951 119.9314,18.6477 47.212,1.2443 94.8741,2.136 137.2485,-0.4769 42.3743,-2.6172 79.4661,-8.7267 100.524,-30.0537 21.0578,-21.3229 26.0869,-57.8634 29.7086,-94.3376 3.6166,-36.4783 5.8414,-72.9067 6.395,-109.3395 0.5485,-36.4202 -0.5536,-72.857 -3.8546,-106.6559 -3.301,-33.8031 -8.7905,-64.9849 -26.3611,-84.9599 -17.5758,-19.9831 -47.2275,-28.7719 -80.4286,-33.4215 z m 395.1476,-28.6351 c -19.4849,53.1642 -13.7574,135.0091 -14.3473,223.1004 -0.5794,88.0912 -7.4711,182.4329 -5.8206,247.422 1.6557,64.9806 11.869,100.6212 35.1982,122.5247 23.324,21.9036 59.7846,30.0743 97.0678,33.5044 37.2781,3.4135 75.3943,2.0822 107.6382,-1.3438 32.2593,-3.4342 58.6567,-8.9754 78.6228,-21.6381 19.9558,-12.6627 33.4908,-32.4592 41.6966,-60.6837 8.211,-28.2288 11.0877,-64.8812 7.5695,-97.8839 -3.5131,-33.0025 -13.4315,-62.3553 -34.4894,-83.0934 -21.0527,-20.7504 -53.2551,-32.8905 -85.2817,-46.8556 -32.042,-13.9608 -63.8978,-29.7508 -81.4167,-56.3121 -17.524,-26.5739 -20.7009,-63.9273 -20.1627,-101.1895 0.5276,-37.2704 4.7651,-74.4497 22.5427,-95.9593 17.7879,-21.5136 49.1211,-27.3576 109.6146,-29.9872 60.4934,-2.6297 150.1315,-2.0448 197.6385,12.3764 47.512,14.4255 52.8722,42.6791 55.0815,104.2628 2.2144,61.5797 1.2676,156.4731 -3.0009,242.2666 -4.2582,85.781 -11.8328,162.4663 7.29,200.5953 19.128,38.1208 64.9586,37.6936 103.1938,37.5775 38.2352,-0.1203 68.8597,0.066 83.4243,-21.3894 14.549,-21.4597 13.0279,-64.5493 13.1779,-116.4401 0.15,-51.895 1.9764,-112.583 1.7954,-170.9648 -0.1811,-58.386 -2.3697,-114.4784 -2.6853,-164.7019 -0.3156,-50.2152 1.2263,-94.5698 -7.021,-131.2182 -8.2421,-36.6442 -26.2835,-65.5697 -60.1158,-86.7474 -33.8322,-21.1778 -83.4449,-34.6119 -143.3795,-41.837 -59.9192,-7.2376 -130.1654,-8.2704 -197.7057,-6.8187 -67.5507,1.4434 -132.4109,5.3712 -187.1872,19.5767 -54.771,14.2098 -99.453,38.689 -118.938,91.8573 z m 1052.5506,274.2115 c 47.926,1.688 121.4422,1.771 181.0612,1.4889 59.6191,-0.2862 105.3254,-0.9332 143.7935,-5.4458 38.4681,-4.5084 69.708,-12.8949 92.9446,-32.5919 23.2406,-19.6971 38.4831,-50.7047 46.6216,-83.0561 8.1337,-32.3556 9.1681,-66.0467 3.7773,-104.0098 -5.386,-37.9673 -17.1934,-80.2149 -56.1941,-106.739 -39.011,-26.5281 -105.2322,-37.3243 -197.6797,-41.2646 -92.4476,-3.9361 -211.1321,-0.9954 -282.1958,7.4118 -71.0638,8.3989 -94.5068,22.2893 -112.9518,38.6724 -18.4347,16.3707 -31.8765,35.2548 -39.389,79.7047 -7.5022,44.4459 -9.0854,114.4701 -9.8771,177.1407 -0.7812,62.6746 -0.7812,117.9955 -0.1966,169.5048 0.595,51.501 1.7902,99.1944 8.2266,132.6367 6.4415,33.4381 18.1345,52.6208 30.2208,68.9416 12.0967,16.3209 24.5865,29.7675 46.2135,39.1992 21.6321,9.4275 52.4117,14.836 104.7769,17.0384 52.3549,2.2065 126.3109,1.2069 198.8802,1.1821 72.5746,-0.021 143.7573,0.9332 186.5301,-8.2496 42.7833,-9.1829 57.1404,-28.5066 67.1676,-48.8797 10.0431,-20.3772 15.7441,-41.808 16.257,-78.5268 0.512,-36.723 -4.1705,-88.7342 -63.0343,-113.4001 -58.8584,-24.6658 -171.8981,-21.9823 -223.063,0.5434 -51.1649,22.5174 -40.4652,64.8728 -59.2258,85.5778 -18.7451,20.6966 -66.9402,19.7343 -99.3858,17.3204 -32.4353,-2.418 -49.1212,-6.2712 -58.4653,-23.2225 -9.3389,-16.9472 -11.3464,-46.9676 -13.0227,-82.3592 -1.666,-35.3875 -3.0061,-76.142 7.4815,-94.8727 10.4979,-18.7264 32.8129,-15.429 80.7286,-13.7451 z m 51.1287,-232.8473 c -10.3478,24.8982 -9.7529,61.4263 -0.3881,85.8142 9.37,24.3839 27.5098,36.6401 59.4639,43.9896 31.9489,7.3496 77.7018,9.805 120.1072,9.8423 42.4055,0.041 81.453,-2.335 106.0032,-17.5071 24.5607,-15.1844 34.6188,-43.1601 35.4986,-71.3846 0.8893,-28.2245 -7.3886,-56.6813 -30.8316,-73.7156 -23.4431,-17.0343 -62.0353,-22.6418 -104.0424,-25.4871 -42.007,-2.8494 -87.434,-2.9282 -120.7902,3.6665 -33.3666,6.603 -54.6573,19.8795 -65.0206,44.7818 z M 6559.8915,1664.4762 c 1.5263,11.8995 24.4778,21.974 112.6155,60.6672 88.1324,38.6973 241.4615,106.0172 323.5508,143.885 82.0842,37.8636 92.9236,46.2832 102.3298,55.8269 9.4268,9.5603 17.4102,20.2612 24.7158,32.3805 7.2952,12.1235 13.9023,25.6488 18.3622,40.3397 4.4703,14.6868 6.7934,30.5264 6.2398,44.4003 -0.5537,13.8862 -3.9892,25.7899 -10.6376,39.7092 -6.6382,13.9278 -16.479,29.8463 -24.5968,40.1034 -8.1075,10.2529 -14.5025,14.8277 -23.4016,19.9873 -8.8785,5.1597 -20.2611,10.9041 -35.5966,16.1176 -15.3303,5.2095 -34.6083,9.8797 -58.2014,12.3226 -23.593,2.4347 -51.5063,2.6462 -74.4423,0.2696 -22.9412,-2.3807 -40.8894,-7.3413 -115.7043,-38.4981 -74.8096,-31.1487 -206.4703,-88.4895 -276.1888,-119.9865 -69.7186,-31.4887 -77.5001,-37.1253 -87.2374,-42.5629 -9.7167,-5.4374 -21.4253,-10.6593 -34.2876,-14.193 -12.8572,-3.5214 -26.8889,-5.338 -39.4097,-4.5998 -12.5158,0.7507 -23.5155,4.0606 -33.4546,9.0916 -9.9132,5.0269 -18.7554,11.7751 -25.0832,20.3524 -6.3328,8.5773 -10.177,19.0002 -17.4154,26.806 -7.2279,7.8183 -17.8603,13.0277 -30.226,17.5901 -12.3552,4.5748 -26.4645,8.4901 -42.3122,11.2649 -15.8581,2.7789 -33.465,4.4172 -53.162,5.2135 -19.7075,0.7964 -41.5104,0.7466 -60.2607,-1.9908 -18.7347,-2.7416 -34.4117,-8.1542 -51.0821,-6.126 -16.6651,2.0447 -34.3237,11.5469 -34.867,25.2797 -0.5432,13.7369 16.034,31.7127 33.2011,46.7188 17.1877,15.0184 34.9912,27.0714 56.3129,38.2452 21.332,11.1695 46.1978,21.4556 72.8229,28.4402 26.6508,7.0053 55.0401,10.7008 78.9953,12.5009 23.9708,1.8083 43.4816,1.7171 68.3889,-1.796 24.9175,-3.5047 55.2005,-10.4271 82.1462,-14.5456 26.9509,-4.1145 50.5803,-5.4251 74.5458,-5.8855 23.9759,-0.4604 48.3296,-0.074 67.6904,3.4591 19.3659,3.542 33.7598,10.2322 49.9749,19.444 16.215,9.2285 34.241,20.9787 48.6917,33.322 14.4714,12.364 25.3573,25.2963 35.8811,37.6811 10.5289,12.3765 20.6802,24.1889 30.8883,39.6761 10.1926,15.4996 20.4317,34.6783 33.2165,56.0923 12.7744,21.4183 28.0788,45.0888 43.3678,67.9049 15.2993,22.8119 30.5882,44.7776 50.5285,66.4324 19.9299,21.6547 44.5215,42.9858 71.5708,62.0317 27.0699,19.0542 56.6233,35.8189 89.3534,50.294 32.7407,14.4794 68.6735,26.6692 105.2996,36.3 36.6106,9.6391 73.9249,16.7232 115.8441,20.0911 41.9138,3.3719 88.4428,3.0277 131.3502,-0.9706 42.9124,-3.9983 82.1928,-11.6423 116.0923,-20.1076 33.9099,-8.4571 62.4336,-17.7311 87.7237,-28.6767 25.2746,-10.9373 47.3362,-23.5543 67.9233,-38.4318 20.5818,-14.8734 39.7149,-31.9988 62.0352,-52.5503 22.3048,-20.5473 47.807,-44.5081 82.6843,-92.326 34.893,-47.8137 79.161,-119.4804 115.3163,-181.1803 36.1502,-61.6959 64.198,-113.425 80.6252,-146.9502 16.4479,-33.5251 21.2803,-48.8464 26.7181,-73.2386 5.4533,-24.3796 11.5068,-57.8343 13.3384,-86.4363 1.8057,-28.6062 -0.6106,-52.3637 -9.5511,-82.0192 -8.925,-29.6596 -24.3743,-65.213 -46.9688,-100.7124 -22.6049,-35.5036 -52.36,-70.9574 -82.0118,-97.0667 -29.6517,-26.1051 -59.2,-42.8739 -90.5125,-58.2035 -31.3177,-15.3421 -64.4049,-29.249 -101.7864,-42.2767 -37.3661,-13.0276 -79.0368,-25.1843 -113.4589,-31.4306 -34.4375,-6.2629 -61.642,-6.6238 -94.9154,-5.533 -33.2787,1.095 -72.6212,3.6624 -109.0403,11.5719 -36.4089,7.9095 -69.91,21.1819 -94.481,32.4053 -24.5657,11.2152 -40.2065,20.3939 -59.7898,30.1615 -19.5729,9.776 -43.0728,20.1367 -68.4147,25.9848 -25.3573,5.8482 -52.5307,7.1796 -73.661,6.7731 -21.1199,-0.4065 -36.1812,-2.5632 -49.085,-4.7325 -12.9089,-2.165 -23.6758,-4.3466 -37.3297,-8.7846 -13.6488,-4.4213 -30.195,-11.099 -46.7568,-19.7509 -16.5668,-8.652 -33.1493,-19.2906 -49.4316,-33.3178 -16.2616,-14.0356 -32.2127,-31.4722 -50.3939,-55.9556 -18.1863,-24.4958 -38.5974,-56.055 -56.2612,-77.6475 -17.6482,-21.5925 -32.5543,-33.2349 -50.3629,-42.8366 -17.8034,-9.6183 -38.4939,-17.2085 -61.6472,-23.3096 -23.1688,-6.0929 -48.7901,-10.7175 -74.6338,-12.8949 -25.8385,-2.19 -51.884,-1.937 -76.1082,1.8166 -24.2295,3.7536 -46.6326,11.0202 -50.2129,25.765 -3.5701,14.7448 11.6878,36.9884 30.9089,52.6125 19.2315,15.6283 42.421,24.6327 61.1868,38.0295 18.7761,13.3927 33.1234,31.1611 41.9915,45.574 8.8837,14.4213 12.2932,25.4747 14.5646,36.4825 2.292,10.9995 3.4354,21.9368 2.6232,31.9574 -0.8072,10.0455 -3.5752,19.1703 -7.0728,27.1461 -3.4924,7.9759 -7.7039,14.8029 -19.7592,25.0807 -12.0397,10.2736 -31.9282,24.0147 -30.4019,35.9225 z M 6026.0002,1458.406 c -9.3027,0.2322 -14.1455,7.5819 -17.8501,13.206 -3.6941,5.6241 -6.2604,9.5105 -16.5616,23.5418 -10.3065,14.0315 -28.3583,38.2079 -36.0467,49.6844 -7.6626,11.493 -4.967,10.2902 166.4138,82.0067 171.3654,71.7289 511.4003,216.3771 684.2144,290.3332 172.8191,73.9562 178.4173,77.1996 183.0842,81.5587 4.6823,4.3675 8.4489,9.8299 10.3737,15.6698 1.9195,5.8398 1.9867,12.0737 0.4294,17.2001 -1.5574,5.1431 -4.7549,9.1952 -10.7359,12.165 -5.9914,2.9697 -14.7611,4.8651 -23.3136,6.3914 -8.5422,1.5346 -16.8515,2.6877 -25.4299,1.6591 -8.5783,-1.041 -17.4154,-4.2679 -236.7326,-96.7308 -219.3119,-92.4669 -649.1144,-274.1574 -864.489,-365.1811 -215.3588,-91.0319 -216.2901,-91.3886 -210.0969,-95.6482 6.2035,-4.2554 19.5415,-12.4055 29.3979,-19.9873 9.8718,-7.5694 16.2667,-14.5831 21.7356,-21.5759 5.4792,-6.9929 10.027,-13.9858 12.5209,-18.3988 2.5041,-4.4131 2.9336,-6.2423 17.3584,-0.307 14.4146,5.9353 42.8091,19.6307 57.0063,26.1176 14.1869,6.4868 14.1817,5.7569 26.0299,-10.0746 11.8586,-15.8273 35.5708,-46.7602 47.4242,-62.77 11.8379,-16.0099 11.8328,-17.1131 -8.8837,-27.3951 -20.7163,-10.2777 -62.1335,-29.7425 -83.3155,-39.4687 -21.1665,-9.7303 -22.0926,-9.7262 -25.404,-15.736 -3.3113,-6.0182 -9.0025,-18.0546 -15.8321,-27.8928 -6.8244,-9.8298 -14.7819,-17.4573 -22.9464,-23.4423 -8.1696,-5.9726 -16.5565,-10.311 -24.2294,-13.7287 -7.6833,-3.4176 -14.6525,-5.9352 -24.3999,-8.6104 -9.7529,-2.6752 -22.2841,-5.5039 -36.6572,-7.4118 -14.3783,-1.9079 -30.583,-2.8867 -42.6331,-4.2596 -12.0501,-1.3811 -19.9403,-3.1439 -24.8141,-4.0273 -4.8738,-0.8793 -6.7157,-0.8669 -6.0639,-3.99 0.6571,-3.1107 3.8236,-9.3571 5.3085,-21.0824 1.4901,-11.7211 1.2935,-28.9296 -0.7347,-44.1141 -2.0281,-15.1678 -5.8724,-28.3199 -11.574,-40.5429 -5.6966,-12.223 -13.2349,-23.517 -23.293,-33.1436 -10.0581,-9.6308 -22.6618,-17.5818 -36.6262,-24.6161 -13.9541,-7.0385 -29.3102,-13.1562 -46.5187,-19.9832 -17.1981,-6.827 -36.2743,-14.3757 -56.0232,-21.5469 -19.7591,-7.18368 -40.2012,-13.97747 -58.7756,-18.79286 -18.5692,-4.80709 -35.2654,-7.60258 -48.9453,-9.33214 -13.6643,-1.72956 -24.3226,-2.38903 -38.8923,-1.91206 -14.5801,0.47284 -33.0821,2.07381 -49.949,4.21398 -16.867,2.14433 -32.1146,4.81539 -53.7932,11.9327 -21.6736,7.1173 -49.7782,18.67668 -68.1922,26.85998 -18.4244,8.1874 -27.158,13.0111 -38.8769,20.6054 -11.7137,7.5901 -26.4128,17.955 -43.554,36.2003 -17.1515,18.2496 -36.7555,44.392 -46.8498,72.6539 -10.084,28.2619 -10.6583,58.6597 -8.299,83.5289 2.3697,24.8773 7.6936,44.2468 15.7857,62.911 8.1075,18.6726 18.9727,36.6442 42.5451,59.3981 23.5672,22.7621 59.8156,50.3064 100.3326,73.9478 40.5117,23.6456 85.2816,43.4007 122.7563,57.7971 37.4799,14.4046 67.6593,23.4381 94.9569,27.6729 27.3131,4.2305 51.7288,3.6333 71.4518,6.1551 19.723,2.5133 34.748,8.1334 173.6781,67.0794 138.9297,58.95 401.7646,171.2344 537.5955,231.1259 135.8257,59.8958 144.6679,67.4196 149.8987,74.4829 5.2309,7.0551 6.8503,13.6706 3.8494,21.5386 -3.006,7.8556 -10.6479,16.9804 -26.0869,21.381 -15.4441,4.4089 -38.6802,4.0854 -68.632,0.7051 -29.9467,-3.3886 -66.6141,-9.8381 -108.704,-18.2744 -42.0846,-8.428 -89.5916,-18.8509 -138.5523,-23.7658 -48.9504,-4.9191 -99.3547,-4.3468 -137.6831,1.8954 -38.318,6.238 -64.5705,18.15 -80.8321,33.0939 -16.2613,14.9521 -22.5321,32.9361 -24.8811,50.5221 -2.3386,17.59 -0.7554,34.7819 4.2736,49.3939 5.0291,14.608 13.4985,26.6236 23.805,39.8836 10.3116,13.2516 22.4548,27.7475 39.1458,45.0182 16.7066,17.2789 37.9352,37.3327 63.6392,56.7601 25.7144,19.4275 55.899,38.2162 78.2193,51.783 22.3151,13.5462 36.7503,21.858 59.0913,32.1233 22.341,10.2737 52.5722,22.4967 83.6932,32.3349 31.1367,9.8381 63.1581,17.2872 94.4602,21.9989 31.3023,4.7117 61.8801,6.6818 96.8144,6.4206 34.9395,-0.2614 74.2664,-2.7417 110.5563,-6.4911 36.2846,-3.7453 69.5633,-8.7556 101.4398,-14.1185 31.8765,-5.3587 62.3663,-11.0782 85.9232,-15.089 23.562,-4.0232 40.1961,-6.3459 54.59,-2.6047 14.3938,3.7411 26.5422,13.5295 37.0866,25.1636 10.5548,11.634 19.5109,25.1263 39.327,57.9256 19.8212,32.7994 50.5077,84.9266 82.943,128.4268 32.4405,43.5127 66.6297,78.4024 100.524,107.6307 33.9099,29.2076 67.5093,52.766 106.174,74.2548 38.6699,21.493 82.3998,40.9453 125.6227,55.8145 43.2126,14.8734 85.9284,25.1719 131.1536,30.908 45.2149,5.7279 92.9546,6.9017 140.8599,6.7275 47.9105,-0.1701 95.9813,-1.6798 144.492,-7.7395 48.5106,-6.0555 97.4507,-16.6776 137.3623,-28.1374 39.8961,-11.4558 70.7792,-23.77 96.1106,-35.8603 25.3109,-12.0779 45.0804,-23.9359 65.6933,-39.5185 20.6284,-15.5619 42.1209,-34.8442 63.1891,-53.8568 21.0733,-19.0128 41.7431,-37.7475 60.5348,-56.5238 18.7917,-18.7555 35.6845,-37.5566 48.4744,-52.4756 12.7951,-14.9314 21.4562,-25.9724 53.9225,-80.75 32.4767,-54.7983 88.7379,-153.3208 123.8222,-220.5786 35.1206,-67.2577 49.0436,-103.2383 58.6516,-132.9601 9.6131,-29.726 14.8905,-53.1891 16.8669,-83.2303 1.9713,-30.0288 0.6209,-66.6356 -4.3978,-99.7212 -5.0084,-33.098 -13.6695,-62.687 -26.7698,-94.6237 -13.0952,-31.9367 -30.6193,-66.2167 -55.7853,-100.6337 -25.1503,-34.4045 -57.9581,-68.9416 -89.9743,-96.7141 -32.0318,-27.7641 -63.2977,-48.776 -99.1633,-68.9998 -35.876,-20.2362 -76.3774,-39.7134 -114.0487,-54.6241 -37.6661,-14.9107 -72.4969,-25.2755 -111.9532,-34.1348 -39.4407,-8.8552 -83.5018,-16.2214 -124.055,-20.4976 -40.548,-4.2762 -77.5932,-5.4625 -114.5919,-2.2604 -36.9883,3.2019 -73.9405,10.7962 -109.2162,22.227 -35.2758,11.4267 -68.8958,26.6817 -94.2119,38.5894 -25.3211,11.8913 -42.3536,20.4437 -59.3966,27.1587 -17.0532,6.7108 -34.1219,11.6008 -50.0575,14.8319 -15.9254,3.2268 -30.728,4.8029 -45.3132,3.9983 -14.5956,-0.813 -28.9843,-3.9901 -43.4247,-11.9411 -14.4352,-7.9468 -28.9325,-20.6551 -46.5291,-41.7581 -17.612,-21.1032 -38.3128,-50.6093 -64.8395,-82.8072 -26.5266,-32.2022 -58.8688,-67.1085 -84.847,-92.2016 -25.9679,-25.0889 -45.5771,-40.3688 -68.4406,-55.3997 -22.848,-15.0186 -48.9504,-29.784 -78.1572,-43.1974 -29.2119,-13.4176 -61.5334,-25.4789 -99.1788,-33.8405 -37.6196,-8.3616 -80.5734,-13.0276 -119.7606,-16.3747 -39.1821,-3.3555 -74.5821,-5.3961 -112.1861,-5.3505 -37.6143,0.033 -77.4173,2.1527 -112.1395,6.2339 -34.7118,4.0854 -64.348,10.1285 -88.0807,18.4029 -23.7328,8.2829 -41.5673,18.7888 -56.6906,35.5701 -15.1131,16.7646 -27.5149,39.8046 -30.3812,59.4602 -2.8613,19.6514 3.8079,35.9183 17.4516,55.1425 13.6436,19.2284 34.272,41.3975 61.3678,62.0567 27.0906,20.6551 60.6538,39.7881 95.1069,57.6561 34.4583,17.8679 69.8168,34.4625 104.9581,51.4221 35.1257,16.9596 70.0496,34.2635 93.2754,49.535 23.2102,15.2757 34.7376,28.4942 36.6417,39.365 1.9091,10.8792 -5.8,19.4109 -19.0867,23.459 -13.2814,4.0564 -32.1507,3.6457 -54.7969,0.983 -22.6462,-2.6711 -49.059,-7.5902 -85.4472,-17.8182 -36.383,-10.2239 -82.7465,-25.7484 -115.7147,-37.9756 -32.9474,-12.2189 -52.5204,-21.128 -70.8154,-29.867 -18.3105,-8.7349 -35.3585,-17.2997 -50.7716,-25.0392 -15.4131,-7.7394 -29.1809,-14.6535 -38.4836,-14.4378 z m -657.9098,-310.5902 c -13.2297,-12.4097 -37.1695,-21.8082 -57.9582,-28.9213 -20.7889,-7.1049 -38.4163,-11.9203 -54.2848,-15.2052 -15.8632,-3.2725 -29.9414,-5.0228 -44.9924,-4.7615 -15.0302,0.2696 -31.0228,2.5508 -44.863,5.2758 -13.8402,2.7291 -25.5178,5.9103 -39.8857,13.4341 -14.368,7.5197 -31.4212,19.3819 -44.1956,30.4394 -12.7589,11.0741 -21.2338,21.3353 -28.1306,32.9652 -6.8968,11.6424 -12.2312,24.6618 -13.0124,40.738 -0.7916,16.0678 2.9439,35.2008 27.0131,55.2628 24.0586,20.0579 68.4405,41.0573 102.6194,57.4818 34.1944,16.437 58.1496,28.3075 78.7729,37.1129 20.6025,8.8054 37.8627,14.554 55.8783,18.7472 18.0207,4.1892 36.8124,6.8353 56.3698,9.3156 19.5574,2.4803 39.9064,4.803 56.3543,8.6976 16.4582,3.8904 29.0257,9.3653 42.7417,12.9696 13.7109,3.6084 28.5755,5.3462 42.0381,3.2475 13.4521,-2.1069 25.4919,-8.0712 34.7998,-14.9397 9.2923,-6.8684 15.8425,-14.641 22.5841,-22.4179 6.7519,-7.7726 13.7005,-15.5493 17.136,-22.8326 3.4252,-7.2874 3.3424,-14.077 1.7177,-19.4772 -1.6194,-5.3919 -4.7962,-9.3943 -10.0839,-11.3603 -5.2981,-1.9743 -12.7278,-1.912 -24.4623,-2.6047 -11.7241,-0.6886 -27.7529,-2.107 -41.8466,-4.9399 -14.1093,-2.8327 -26.2577,-7.0633 -39.2183,-12.8451 -12.9555,-5.7735 -26.7285,-13.0941 -38.7733,-22.3101 -12.0501,-9.2284 -22.3876,-20.3689 -28.5704,-31.7541 -6.1932,-11.381 -8.2214,-23.0234 -9.1165,-34.4045 -0.8795,-11.3728 -0.6156,-22.5049 -1.7436,-35.7898 -1.1279,-13.2682 -3.6528,-28.6973 -16.8876,-41.1236 z m -106.8776,363.3769 c -10.4514,-10.5018 -33.9254,-20.9288 -52.8826,-22.3888 -18.9677,-1.46 -29.3517,-4.9813 -43.7351,0.5682 -14.3835,5.5495 -25.0573,14.8651 -31.5299,27.4157 -6.4829,12.5714 -8.7595,28.3905 -1.7333,42.3347 7.0107,13.961 23.3448,26.0637 44.1853,30.8542 20.8353,4.7946 46.1927,2.277 64.0168,-6.7357 17.8086,-9.0253 28.0841,-24.5332 32.6785,-40.4269 4.5944,-15.8936 -0.5536,-21.1321 -10.9997,-31.6214 z m -195.6465,-78.7176 c -10.4462,-10.4935 -31.1004,-27.1006 -50.0577,-28.5605 -18.9676,-1.4559 -14.8387,0.4935 -29.2222,6.0472 -14.3887,5.5578 -25.0573,14.8609 -31.5351,27.4199 -6.4829,12.5631 -8.7646,28.3821 -1.7384,42.3347 7.021,13.9568 23.355,26.0636 44.1956,30.85 20.8354,4.7988 46.1875,2.2812 64.0169,-6.7399 17.8086,-9.0169 28.084,-24.5331 32.6836,-40.4226 4.5996,-15.8937 -17.8966,-20.4354 -28.3427,-30.9288 z M 4929.9475,1308.706 c 0.026,-20.4892 -16.3547,-18.8178 -35.3222,-20.2819 -18.9521,-1.4516 -37.0608,0.3567 -51.4443,5.9063 -14.3835,5.5536 -25.0521,14.8568 -31.5351,27.4199 -6.4725,12.5631 -8.7593,28.3821 -1.7332,42.3306 7.021,13.9567 23.3499,26.0677 44.1956,30.85 20.8354,4.7987 46.1928,2.2811 64.0066,-6.74 17.824,-9.0168 38.9078,-34.8524 32.6835,-40.4226 -6.2345,-5.5744 -20.8715,-18.5814 -20.8509,-39.0623 z"
   id="path1" />
 </g>
</svg>
